<svg xmlns="http://www.w3.org/2000/svg" version="1.1" xmlns:xlink="http://www.w3.org/1999/xlink" xmlns:svgjs="http://svgjs.dev/svgjs" width="1440" height="560" preserveAspectRatio="none" viewBox="0 0 1440 560"><g mask="url(&quot;#SvgjsMask1264&quot;)" fill="none"><rect width="1440" height="560" x="0" y="0" fill="#0e2a47"></rect><g mask="url(&quot;#SvgjsMask1265&quot;)"><path d="M9.5 294.5L28.5 275.5L47.5 275.5L66.5 275.5M-9.5 294.5L9.5 294.5L28.5 294.5" stroke="#3a7cc3" stroke-width="3.17"></path><path d="M23.75 294.5 a4.75 4.75 0 1 0 9.5 0 a4.75 4.75 0 1 0 -9.5 0zM61.75 275.5 a4.75 4.75 0 1 0 9.5 0 a4.75 4.75 0 1 0 -9.5 0z" fill="#3a7cc3"></path><path d="M85.5 256.5L104.5 275.5L123.5 275.5L142.5 275.5L161.5 275.5M313.5 275.5L332.5 256.5L351.5 256.5L370.5 256.5L389.5 256.5L408.5 256.5L427.5 256.5M218.5 256.5L237.5 237.5L256.5 237.5L275.5 237.5M389.5 275.5L408.5 294.5M104.5 256.5L123.5 256.5L142.5 256.5L161.5 256.5M-9.5 256.5L9.5 256.5L28.5 256.5L47.5 256.5L66.5 256.5L85.5 256.5L104.5 256.5L123.5 237.5L142.5 237.5L161.5 237.5L180.5 237.5L199.5 237.5L218.5 256.5L237.5 256.5L256.5 256.5L275.5 275.5L294.5 275.5L313.5 275.5L332.5 275.5L351.5 275.5L370.5 275.5L389.5 275.5L408.5 275.5" stroke="rgba(23, 53, 179, 1)" stroke-width="3.17"></path><path d="M403.75 275.5 a4.75 4.75 0 1 0 9.5 0 a4.75 4.75 0 1 0 -9.5 0zM156.75 275.5 a4.75 4.75 0 1 0 9.5 0 a4.75 4.75 0 1 0 -9.5 0zM422.75 256.5 a4.75 4.75 0 1 0 9.5 0 a4.75 4.75 0 1 0 -9.5 0zM270.75 237.5 a4.75 4.75 0 1 0 9.5 0 a4.75 4.75 0 1 0 -9.5 0zM403.75 294.5 a4.75 4.75 0 1 0 9.5 0 a4.75 4.75 0 1 0 -9.5 0zM156.75 256.5 a4.75 4.75 0 1 0 9.5 0 a4.75 4.75 0 1 0 -9.5 0z" fill="rgba(23, 53, 179, 1)"></path><path d="M47.5 313.5L66.5 294.5L85.5 294.5M-9.5 313.5L9.5 313.5L28.5 313.5L47.5 313.5L66.5 313.5L85.5 313.5" stroke="rgba(23, 53, 179, 1)" stroke-width="3.17"></path><path d="M80.75 313.5 a4.75 4.75 0 1 0 9.5 0 a4.75 4.75 0 1 0 -9.5 0zM80.75 294.5 a4.75 4.75 0 1 0 9.5 0 a4.75 4.75 0 1 0 -9.5 0z" fill="rgba(23, 53, 179, 1)"></path><path d="M-9.5 237.5L9.5 237.5" stroke="#3a7cc3" stroke-width="3.17"></path><path d="M4.75 237.5 a4.75 4.75 0 1 0 9.5 0 a4.75 4.75 0 1 0 -9.5 0z" fill="#3a7cc3"></path><path d="M104.5 332.5L123.5 313.5L142.5 313.5M-9.5 332.5L9.5 332.5L28.5 332.5L47.5 332.5L66.5 332.5L85.5 332.5L104.5 332.5L123.5 332.5L142.5 332.5L161.5 332.5" stroke="#3a7cc3" stroke-width="3.17"></path><path d="M156.75 332.5 a4.75 4.75 0 1 0 9.5 0 a4.75 4.75 0 1 0 -9.5 0zM137.75 313.5 a4.75 4.75 0 1 0 9.5 0 a4.75 4.75 0 1 0 -9.5 0z" fill="#3a7cc3"></path><path d="M28.5 218.5L47.5 218.5L66.5 218.5L85.5 218.5L104.5 218.5M-9.5 218.5L9.5 218.5L28.5 218.5L47.5 237.5L66.5 237.5L85.5 237.5L104.5 237.5L123.5 218.5L142.5 218.5" stroke="#3a7cc3" stroke-width="3.17"></path><path d="M137.75 218.5 a4.75 4.75 0 1 0 9.5 0 a4.75 4.75 0 1 0 -9.5 0zM99.75 218.5 a4.75 4.75 0 1 0 9.5 0 a4.75 4.75 0 1 0 -9.5 0z" fill="#3a7cc3"></path><path d="M180.5 351.5L199.5 332.5L218.5 313.5M199.5 351.5L218.5 351.5L237.5 351.5M237.5 332.5L256.5 332.5L275.5 332.5L294.5 351.5L313.5 351.5L332.5 351.5M-9.5 351.5L9.5 351.5L28.5 351.5L47.5 351.5L66.5 351.5L85.5 351.5L104.5 351.5L123.5 351.5L142.5 351.5L161.5 351.5L180.5 351.5L199.5 351.5L218.5 332.5L237.5 332.5L256.5 351.5L275.5 351.5" stroke="#3a7cc3" stroke-width="3.17"></path><path d="M270.75 351.5 a4.75 4.75 0 1 0 9.5 0 a4.75 4.75 0 1 0 -9.5 0zM213.75 313.5 a4.75 4.75 0 1 0 9.5 0 a4.75 4.75 0 1 0 -9.5 0zM232.75 351.5 a4.75 4.75 0 1 0 9.5 0 a4.75 4.75 0 1 0 -9.5 0zM327.75 351.5 a4.75 4.75 0 1 0 9.5 0 a4.75 4.75 0 1 0 -9.5 0z" fill="#3a7cc3"></path><path d="M47.5 199.5L66.5 180.5M123.5 199.5L142.5 180.5L161.5 180.5M161.5 199.5L180.5 218.5L199.5 218.5L218.5 237.5M-9.5 199.5L9.5 199.5L28.5 199.5L47.5 199.5L66.5 199.5L85.5 199.5L104.5 199.5L123.5 199.5L142.5 199.5L161.5 199.5L180.5 199.5" stroke="#3a7cc3" stroke-width="3.17"></path><path d="M175.75 199.5 a4.75 4.75 0 1 0 9.5 0 a4.75 4.75 0 1 0 -9.5 0zM61.75 180.5 a4.75 4.75 0 1 0 9.5 0 a4.75 4.75 0 1 0 -9.5 0zM156.75 180.5 a4.75 4.75 0 1 0 9.5 0 a4.75 4.75 0 1 0 -9.5 0zM213.75 237.5 a4.75 4.75 0 1 0 9.5 0 a4.75 4.75 0 1 0 -9.5 0z" fill="#3a7cc3"></path><path d="M104.5 370.5L123.5 389.5L142.5 389.5L161.5 408.5L180.5 408.5M28.5 370.5L47.5 389.5L66.5 389.5L85.5 389.5L104.5 389.5L123.5 408.5L142.5 408.5L161.5 427.5L180.5 427.5M218.5 370.5L237.5 389.5M275.5 370.5L294.5 389.5L313.5 408.5L332.5 408.5L351.5 408.5L370.5 408.5M313.5 370.5L332.5 389.5L351.5 389.5L370.5 389.5M-9.5 370.5L9.5 370.5L28.5 370.5L47.5 370.5L66.5 370.5L85.5 370.5L104.5 370.5L123.5 370.5L142.5 370.5L161.5 370.5L180.5 370.5L199.5 370.5L218.5 370.5L237.5 370.5L256.5 370.5L275.5 370.5L294.5 370.5L313.5 370.5L332.5 370.5L351.5 370.5L370.5 370.5" stroke="#3a7cc3" stroke-width="3.17"></path><path d="M365.75 370.5 a4.75 4.75 0 1 0 9.5 0 a4.75 4.75 0 1 0 -9.5 0zM175.75 408.5 a4.75 4.75 0 1 0 9.5 0 a4.75 4.75 0 1 0 -9.5 0zM175.75 427.5 a4.75 4.75 0 1 0 9.5 0 a4.75 4.75 0 1 0 -9.5 0zM232.75 389.5 a4.75 4.75 0 1 0 9.5 0 a4.75 4.75 0 1 0 -9.5 0zM365.75 408.5 a4.75 4.75 0 1 0 9.5 0 a4.75 4.75 0 1 0 -9.5 0zM365.75 389.5 a4.75 4.75 0 1 0 9.5 0 a4.75 4.75 0 1 0 -9.5 0z" fill="#3a7cc3"></path><path d="M199.5 142.5L218.5 161.5L237.5 161.5L256.5 161.5M294.5 142.5L313.5 123.5L332.5 104.5L351.5 104.5L370.5 104.5M256.5 142.5L275.5 123.5M142.5 142.5L161.5 123.5L180.5 123.5M-9.5 180.5L9.5 180.5L28.5 180.5L47.5 161.5L66.5 161.5L85.5 142.5L104.5 123.5L123.5 123.5L142.5 142.5L161.5 142.5L180.5 142.5L199.5 142.5L218.5 142.5L237.5 142.5L256.5 142.5L275.5 142.5L294.5 142.5L313.5 142.5L332.5 123.5" stroke="rgba(23, 53, 179, 1)" stroke-width="3.17"></path><path d="M327.75 123.5 a4.75 4.75 0 1 0 9.5 0 a4.75 4.75 0 1 0 -9.5 0zM251.75 161.5 a4.75 4.75 0 1 0 9.5 0 a4.75 4.75 0 1 0 -9.5 0zM365.75 104.5 a4.75 4.75 0 1 0 9.5 0 a4.75 4.75 0 1 0 -9.5 0zM270.75 123.5 a4.75 4.75 0 1 0 9.5 0 a4.75 4.75 0 1 0 -9.5 0zM175.75 123.5 a4.75 4.75 0 1 0 9.5 0 a4.75 4.75 0 1 0 -9.5 0z" fill="rgba(23, 53, 179, 1)"></path><path d="M-9.5 389.5L9.5 389.5" stroke="rgba(23, 53, 179, 1)" stroke-width="3.17"></path><path d="M4.75 389.5 a4.75 4.75 0 1 0 9.5 0 a4.75 4.75 0 1 0 -9.5 0z" fill="rgba(23, 53, 179, 1)"></path><path d="M-9.5 161.5L9.5 161.5L28.5 161.5L47.5 142.5L66.5 142.5L85.5 123.5L104.5 104.5L123.5 104.5L142.5 104.5L161.5 104.5" stroke="#3a7cc3" stroke-width="3.17"></path><path d="M156.75 104.5 a4.75 4.75 0 1 0 9.5 0 a4.75 4.75 0 1 0 -9.5 0z" fill="#3a7cc3"></path><path d="M9.5 408.5L28.5 427.5L47.5 427.5L66.5 427.5L85.5 427.5M-9.5 408.5L9.5 408.5L28.5 408.5" stroke="#3a7cc3" stroke-width="3.17"></path><path d="M23.75 408.5 a4.75 4.75 0 1 0 9.5 0 a4.75 4.75 0 1 0 -9.5 0zM80.75 427.5 a4.75 4.75 0 1 0 9.5 0 a4.75 4.75 0 1 0 -9.5 0z" fill="#3a7cc3"></path><path d="M47.5 123.5L66.5 104.5L85.5 85.5L104.5 66.5L123.5 66.5M180.5 85.5L199.5 104.5M161.5 85.5L180.5 66.5L199.5 47.5M-9.5 142.5L9.5 142.5L28.5 142.5L47.5 123.5L66.5 123.5L85.5 104.5L104.5 85.5L123.5 85.5L142.5 85.5L161.5 85.5L180.5 85.5L199.5 85.5" stroke="rgba(23, 53, 179, 1)" stroke-width="3.17"></path><path d="M194.75 85.5 a4.75 4.75 0 1 0 9.5 0 a4.75 4.75 0 1 0 -9.5 0zM118.75 66.5 a4.75 4.75 0 1 0 9.5 0 a4.75 4.75 0 1 0 -9.5 0zM194.75 104.5 a4.75 4.75 0 1 0 9.5 0 a4.75 4.75 0 1 0 -9.5 0zM194.75 47.5 a4.75 4.75 0 1 0 9.5 0 a4.75 4.75 0 1 0 -9.5 0z" fill="rgba(23, 53, 179, 1)"></path></g></g><defs><mask id="SvgjsMask1264"><rect width="1440" height="560" fill="#ffffff"></rect></mask><mask id="SvgjsMask1265"><rect width="1440" height="560" fill="white"></rect><path d="M26.12 294.5 a2.38 2.38 0 1 0 4.76 0 a2.38 2.38 0 1 0 -4.76 0zM64.12 275.5 a2.38 2.38 0 1 0 4.76 0 a2.38 2.38 0 1 0 -4.76 0z" fill="black"></path><path d="M406.12 275.5 a2.38 2.38 0 1 0 4.76 0 a2.38 2.38 0 1 0 -4.76 0zM159.12 275.5 a2.38 2.38 0 1 0 4.76 0 a2.38 2.38 0 1 0 -4.76 0zM425.12 256.5 a2.38 2.38 0 1 0 4.76 0 a2.38 2.38 0 1 0 -4.76 0zM273.12 237.5 a2.38 2.38 0 1 0 4.76 0 a2.38 2.38 0 1 0 -4.76 0zM406.12 294.5 a2.38 2.38 0 1 0 4.76 0 a2.38 2.38 0 1 0 -4.76 0zM159.12 256.5 a2.38 2.38 0 1 0 4.76 0 a2.38 2.38 0 1 0 -4.76 0z" fill="black"></path><path d="M83.12 313.5 a2.38 2.38 0 1 0 4.76 0 a2.38 2.38 0 1 0 -4.76 0zM83.12 294.5 a2.38 2.38 0 1 0 4.76 0 a2.38 2.38 0 1 0 -4.76 0z" fill="black"></path><path d="M7.12 237.5 a2.38 2.38 0 1 0 4.76 0 a2.38 2.38 0 1 0 -4.76 0z" fill="black"></path><path d="M159.12 332.5 a2.38 2.38 0 1 0 4.76 0 a2.38 2.38 0 1 0 -4.76 0zM140.12 313.5 a2.38 2.38 0 1 0 4.76 0 a2.38 2.38 0 1 0 -4.76 0z" fill="black"></path><path d="M140.12 218.5 a2.38 2.38 0 1 0 4.76 0 a2.38 2.38 0 1 0 -4.76 0zM102.12 218.5 a2.38 2.38 0 1 0 4.76 0 a2.38 2.38 0 1 0 -4.76 0z" fill="black"></path><path d="M273.12 351.5 a2.38 2.38 0 1 0 4.76 0 a2.38 2.38 0 1 0 -4.76 0zM216.12 313.5 a2.38 2.38 0 1 0 4.76 0 a2.38 2.38 0 1 0 -4.76 0zM235.12 351.5 a2.38 2.38 0 1 0 4.76 0 a2.38 2.38 0 1 0 -4.76 0zM330.12 351.5 a2.38 2.38 0 1 0 4.76 0 a2.38 2.38 0 1 0 -4.76 0z" fill="black"></path><path d="M178.12 199.5 a2.38 2.38 0 1 0 4.76 0 a2.38 2.38 0 1 0 -4.76 0zM64.12 180.5 a2.38 2.38 0 1 0 4.76 0 a2.38 2.38 0 1 0 -4.76 0zM159.12 180.5 a2.38 2.38 0 1 0 4.76 0 a2.38 2.38 0 1 0 -4.76 0zM216.12 237.5 a2.38 2.38 0 1 0 4.76 0 a2.38 2.38 0 1 0 -4.76 0z" fill="black"></path><path d="M368.12 370.5 a2.38 2.38 0 1 0 4.76 0 a2.38 2.38 0 1 0 -4.76 0zM178.12 408.5 a2.38 2.38 0 1 0 4.76 0 a2.38 2.38 0 1 0 -4.76 0zM178.12 427.5 a2.38 2.38 0 1 0 4.76 0 a2.38 2.38 0 1 0 -4.76 0zM235.12 389.5 a2.38 2.38 0 1 0 4.76 0 a2.38 2.38 0 1 0 -4.76 0zM368.12 408.5 a2.38 2.38 0 1 0 4.76 0 a2.38 2.38 0 1 0 -4.76 0zM368.12 389.5 a2.38 2.38 0 1 0 4.76 0 a2.38 2.38 0 1 0 -4.76 0z" fill="black"></path><path d="M330.12 123.5 a2.38 2.38 0 1 0 4.76 0 a2.38 2.38 0 1 0 -4.76 0zM254.12 161.5 a2.38 2.38 0 1 0 4.76 0 a2.38 2.38 0 1 0 -4.76 0zM368.12 104.5 a2.38 2.38 0 1 0 4.76 0 a2.38 2.38 0 1 0 -4.76 0zM273.12 123.5 a2.38 2.38 0 1 0 4.76 0 a2.38 2.38 0 1 0 -4.76 0zM178.12 123.5 a2.38 2.38 0 1 0 4.76 0 a2.38 2.38 0 1 0 -4.76 0z" fill="black"></path><path d="M7.12 389.5 a2.38 2.38 0 1 0 4.76 0 a2.38 2.38 0 1 0 -4.76 0z" fill="black"></path><path d="M159.12 104.5 a2.38 2.38 0 1 0 4.76 0 a2.38 2.38 0 1 0 -4.76 0z" fill="black"></path><path d="M26.12 408.5 a2.38 2.38 0 1 0 4.76 0 a2.38 2.38 0 1 0 -4.76 0zM83.12 427.5 a2.38 2.38 0 1 0 4.76 0 a2.38 2.38 0 1 0 -4.76 0z" fill="black"></path><path d="M197.12 85.5 a2.38 2.38 0 1 0 4.76 0 a2.38 2.38 0 1 0 -4.76 0zM121.12 66.5 a2.38 2.38 0 1 0 4.76 0 a2.38 2.38 0 1 0 -4.76 0zM197.12 104.5 a2.38 2.38 0 1 0 4.76 0 a2.38 2.38 0 1 0 -4.76 0zM197.12 47.5 a2.38 2.38 0 1 0 4.76 0 a2.38 2.38 0 1 0 -4.76 0z" fill="black"></path></mask></defs></svg>