<svg xmlns="http://www.w3.org/2000/svg" version="1.1" xmlns:xlink="http://www.w3.org/1999/xlink" xmlns:svgjs="http://svgjs.dev/svgjs" width="1440" height="560" preserveAspectRatio="none" viewBox="0 0 1440 560"><g mask="url(&quot;#SvgjsMask1274&quot;)" fill="none"><rect width="1440" height="560" x="0" y="0" fill="#0e2a47"></rect><g mask="url(&quot;#SvgjsMask1275&quot;)"><path d="M1462.5 277.5L1447.5 277.5L1432.5 277.5L1417.5 292.5L1402.5 292.5L1387.5 292.5L1372.5 292.5L1357.5 292.5L1342.5 292.5L1327.5 292.5L1312.5 292.5L1297.5 292.5" stroke="#3a7cc3" stroke-width="2.5"></path><path d="M1293.75 292.5 a3.75 3.75 0 1 0 7.5 0 a3.75 3.75 0 1 0 -7.5 0z" fill="#3a7cc3"></path><path d="M1132.5 322.5L1117.5 307.5M1087.5 307.5L1072.5 322.5L1057.5 322.5L1042.5 322.5L1027.5 322.5L1012.5 307.5L997.5 307.5L982.5 307.5L967.5 307.5L952.5 307.5M1072.5 307.5L1057.5 292.5L1042.5 292.5L1027.5 292.5L1012.5 277.5L997.5 277.5L982.5 277.5L967.5 277.5L952.5 277.5M1342.5 307.5L1327.5 322.5L1312.5 322.5L1297.5 322.5L1282.5 322.5L1267.5 322.5L1252.5 337.5L1237.5 337.5M1162.5 322.5L1147.5 307.5M1267.5 307.5L1252.5 307.5M1282.5 307.5L1267.5 292.5L1252.5 292.5L1237.5 292.5L1222.5 292.5M1462.5 292.5L1447.5 292.5L1432.5 292.5L1417.5 307.5L1402.5 307.5L1387.5 307.5L1372.5 307.5L1357.5 307.5L1342.5 307.5L1327.5 307.5L1312.5 307.5L1297.5 307.5L1282.5 307.5L1267.5 307.5L1252.5 322.5L1237.5 322.5L1222.5 322.5L1207.5 322.5L1192.5 322.5L1177.5 322.5L1162.5 322.5L1147.5 322.5L1132.5 322.5L1117.5 322.5L1102.5 322.5L1087.5 307.5L1072.5 307.5L1057.5 307.5L1042.5 307.5L1027.5 307.5L1012.5 292.5" stroke="rgba(23, 53, 179, 1)" stroke-width="2.5"></path><path d="M1008.75 292.5 a3.75 3.75 0 1 0 7.5 0 a3.75 3.75 0 1 0 -7.5 0zM1113.75 307.5 a3.75 3.75 0 1 0 7.5 0 a3.75 3.75 0 1 0 -7.5 0zM948.75 307.5 a3.75 3.75 0 1 0 7.5 0 a3.75 3.75 0 1 0 -7.5 0zM948.75 277.5 a3.75 3.75 0 1 0 7.5 0 a3.75 3.75 0 1 0 -7.5 0zM1233.75 337.5 a3.75 3.75 0 1 0 7.5 0 a3.75 3.75 0 1 0 -7.5 0zM1143.75 307.5 a3.75 3.75 0 1 0 7.5 0 a3.75 3.75 0 1 0 -7.5 0zM1248.75 307.5 a3.75 3.75 0 1 0 7.5 0 a3.75 3.75 0 1 0 -7.5 0zM1218.75 292.5 a3.75 3.75 0 1 0 7.5 0 a3.75 3.75 0 1 0 -7.5 0z" fill="rgba(23, 53, 179, 1)"></path><path d="M1402.5 262.5L1387.5 277.5M1042.5 262.5L1027.5 247.5L1012.5 232.5L997.5 232.5L982.5 232.5M1222.5 262.5L1207.5 247.5L1192.5 247.5L1177.5 247.5M1072.5 262.5L1057.5 247.5L1042.5 247.5L1027.5 232.5L1012.5 217.5L997.5 217.5M1027.5 262.5L1012.5 262.5L997.5 262.5M1162.5 262.5L1147.5 247.5L1132.5 247.5L1117.5 247.5L1102.5 247.5L1087.5 247.5M1297.5 262.5L1282.5 247.5L1267.5 247.5M1462.5 262.5L1447.5 262.5L1432.5 262.5L1417.5 262.5L1402.5 262.5L1387.5 262.5L1372.5 277.5L1357.5 277.5L1342.5 277.5L1327.5 277.5L1312.5 277.5L1297.5 262.5L1282.5 262.5L1267.5 262.5L1252.5 262.5L1237.5 262.5L1222.5 262.5L1207.5 262.5L1192.5 262.5L1177.5 262.5L1162.5 262.5L1147.5 262.5L1132.5 262.5L1117.5 262.5L1102.5 262.5L1087.5 262.5L1072.5 262.5L1057.5 262.5L1042.5 262.5L1027.5 262.5L1012.5 247.5" stroke="#3a7cc3" stroke-width="2.5"></path><path d="M1008.75 247.5 a3.75 3.75 0 1 0 7.5 0 a3.75 3.75 0 1 0 -7.5 0zM1383.75 277.5 a3.75 3.75 0 1 0 7.5 0 a3.75 3.75 0 1 0 -7.5 0zM978.75 232.5 a3.75 3.75 0 1 0 7.5 0 a3.75 3.75 0 1 0 -7.5 0zM1173.75 247.5 a3.75 3.75 0 1 0 7.5 0 a3.75 3.75 0 1 0 -7.5 0zM993.75 217.5 a3.75 3.75 0 1 0 7.5 0 a3.75 3.75 0 1 0 -7.5 0zM993.75 262.5 a3.75 3.75 0 1 0 7.5 0 a3.75 3.75 0 1 0 -7.5 0zM1083.75 247.5 a3.75 3.75 0 1 0 7.5 0 a3.75 3.75 0 1 0 -7.5 0zM1263.75 247.5 a3.75 3.75 0 1 0 7.5 0 a3.75 3.75 0 1 0 -7.5 0z" fill="#3a7cc3"></path><path d="M1372.5 322.5L1357.5 322.5L1342.5 322.5M1327.5 337.5L1312.5 337.5L1297.5 337.5L1282.5 337.5M1237.5 352.5L1222.5 352.5L1207.5 352.5L1192.5 352.5L1177.5 352.5M1462.5 307.5L1447.5 307.5L1432.5 307.5L1417.5 322.5L1402.5 322.5L1387.5 322.5L1372.5 322.5L1357.5 337.5L1342.5 337.5L1327.5 337.5L1312.5 352.5L1297.5 352.5L1282.5 352.5L1267.5 352.5L1252.5 352.5L1237.5 352.5L1222.5 367.5L1207.5 367.5L1192.5 367.5" stroke="rgba(23, 53, 179, 1)" stroke-width="2.5"></path><path d="M1188.75 367.5 a3.75 3.75 0 1 0 7.5 0 a3.75 3.75 0 1 0 -7.5 0zM1338.75 322.5 a3.75 3.75 0 1 0 7.5 0 a3.75 3.75 0 1 0 -7.5 0zM1278.75 337.5 a3.75 3.75 0 1 0 7.5 0 a3.75 3.75 0 1 0 -7.5 0zM1173.75 352.5 a3.75 3.75 0 1 0 7.5 0 a3.75 3.75 0 1 0 -7.5 0z" fill="rgba(23, 53, 179, 1)"></path><path d="M1372.5 232.5L1357.5 247.5L1342.5 247.5L1327.5 247.5M1402.5 247.5L1387.5 247.5L1372.5 247.5M1252.5 217.5L1237.5 232.5L1222.5 232.5L1207.5 232.5M1162.5 202.5L1147.5 217.5M1117.5 202.5L1102.5 217.5L1087.5 217.5L1072.5 217.5L1057.5 217.5L1042.5 232.5M1267.5 217.5L1252.5 232.5L1237.5 247.5L1222.5 247.5M1462.5 247.5L1447.5 247.5L1432.5 247.5L1417.5 247.5L1402.5 247.5L1387.5 232.5L1372.5 232.5L1357.5 232.5L1342.5 232.5L1327.5 232.5L1312.5 217.5L1297.5 217.5L1282.5 217.5L1267.5 217.5L1252.5 217.5L1237.5 217.5L1222.5 217.5L1207.5 217.5L1192.5 217.5L1177.5 217.5L1162.5 202.5L1147.5 202.5L1132.5 202.5L1117.5 202.5L1102.5 202.5" stroke="rgba(23, 53, 179, 1)" stroke-width="2.5"></path><path d="M1098.75 202.5 a3.75 3.75 0 1 0 7.5 0 a3.75 3.75 0 1 0 -7.5 0zM1323.75 247.5 a3.75 3.75 0 1 0 7.5 0 a3.75 3.75 0 1 0 -7.5 0zM1368.75 247.5 a3.75 3.75 0 1 0 7.5 0 a3.75 3.75 0 1 0 -7.5 0zM1203.75 232.5 a3.75 3.75 0 1 0 7.5 0 a3.75 3.75 0 1 0 -7.5 0zM1143.75 217.5 a3.75 3.75 0 1 0 7.5 0 a3.75 3.75 0 1 0 -7.5 0zM1038.75 232.5 a3.75 3.75 0 1 0 7.5 0 a3.75 3.75 0 1 0 -7.5 0zM1218.75 247.5 a3.75 3.75 0 1 0 7.5 0 a3.75 3.75 0 1 0 -7.5 0z" fill="rgba(23, 53, 179, 1)"></path><path d="M1177.5 382.5L1162.5 367.5L1147.5 367.5L1132.5 367.5L1117.5 367.5M1132.5 382.5L1117.5 397.5M1297.5 367.5L1282.5 382.5L1267.5 382.5M1087.5 382.5L1072.5 367.5L1057.5 352.5L1042.5 352.5L1027.5 352.5M1192.5 382.5L1177.5 397.5L1162.5 397.5M1252.5 367.5L1237.5 382.5L1222.5 397.5L1207.5 397.5L1192.5 397.5L1177.5 412.5L1162.5 412.5M1462.5 322.5L1447.5 322.5L1432.5 322.5L1417.5 337.5L1402.5 337.5L1387.5 337.5L1372.5 337.5L1357.5 352.5L1342.5 352.5L1327.5 352.5L1312.5 367.5L1297.5 367.5L1282.5 367.5L1267.5 367.5L1252.5 367.5L1237.5 367.5L1222.5 382.5L1207.5 382.5L1192.5 382.5L1177.5 382.5L1162.5 382.5L1147.5 382.5L1132.5 382.5L1117.5 382.5L1102.5 382.5L1087.5 382.5L1072.5 382.5" stroke="#3a7cc3" stroke-width="2.5"></path><path d="M1068.75 382.5 a3.75 3.75 0 1 0 7.5 0 a3.75 3.75 0 1 0 -7.5 0zM1113.75 367.5 a3.75 3.75 0 1 0 7.5 0 a3.75 3.75 0 1 0 -7.5 0zM1113.75 397.5 a3.75 3.75 0 1 0 7.5 0 a3.75 3.75 0 1 0 -7.5 0zM1263.75 382.5 a3.75 3.75 0 1 0 7.5 0 a3.75 3.75 0 1 0 -7.5 0zM1023.75 352.5 a3.75 3.75 0 1 0 7.5 0 a3.75 3.75 0 1 0 -7.5 0zM1158.75 397.5 a3.75 3.75 0 1 0 7.5 0 a3.75 3.75 0 1 0 -7.5 0zM1158.75 412.5 a3.75 3.75 0 1 0 7.5 0 a3.75 3.75 0 1 0 -7.5 0z" fill="#3a7cc3"></path><path d="M1462.5 232.5L1447.5 232.5L1432.5 232.5L1417.5 232.5L1402.5 232.5" stroke="#3a7cc3" stroke-width="2.5"></path><path d="M1398.75 232.5 a3.75 3.75 0 1 0 7.5 0 a3.75 3.75 0 1 0 -7.5 0z" fill="#3a7cc3"></path><path d="M1177.5 427.5L1162.5 442.5M1222.5 412.5L1207.5 427.5M1267.5 397.5L1252.5 397.5L1237.5 397.5M1252.5 412.5L1237.5 427.5L1222.5 427.5L1207.5 442.5L1192.5 442.5L1177.5 442.5M1147.5 427.5L1132.5 412.5L1117.5 412.5L1102.5 412.5M1132.5 427.5L1117.5 442.5L1102.5 442.5L1087.5 442.5M1462.5 337.5L1447.5 337.5L1432.5 337.5L1417.5 352.5L1402.5 352.5L1387.5 352.5L1372.5 352.5L1357.5 367.5L1342.5 367.5L1327.5 367.5L1312.5 382.5L1297.5 397.5L1282.5 397.5L1267.5 397.5L1252.5 412.5L1237.5 412.5L1222.5 412.5L1207.5 412.5L1192.5 427.5L1177.5 427.5L1162.5 427.5L1147.5 427.5L1132.5 427.5L1117.5 427.5L1102.5 427.5L1087.5 427.5" stroke="#3a7cc3" stroke-width="2.5"></path><path d="M1083.75 427.5 a3.75 3.75 0 1 0 7.5 0 a3.75 3.75 0 1 0 -7.5 0zM1158.75 442.5 a3.75 3.75 0 1 0 7.5 0 a3.75 3.75 0 1 0 -7.5 0zM1203.75 427.5 a3.75 3.75 0 1 0 7.5 0 a3.75 3.75 0 1 0 -7.5 0zM1233.75 397.5 a3.75 3.75 0 1 0 7.5 0 a3.75 3.75 0 1 0 -7.5 0zM1173.75 442.5 a3.75 3.75 0 1 0 7.5 0 a3.75 3.75 0 1 0 -7.5 0zM1098.75 412.5 a3.75 3.75 0 1 0 7.5 0 a3.75 3.75 0 1 0 -7.5 0zM1083.75 442.5 a3.75 3.75 0 1 0 7.5 0 a3.75 3.75 0 1 0 -7.5 0z" fill="#3a7cc3"></path><path d="M1147.5 187.5L1132.5 172.5L1117.5 172.5L1102.5 172.5L1087.5 172.5M1297.5 202.5L1282.5 187.5M1357.5 217.5L1342.5 202.5L1327.5 202.5L1312.5 187.5L1297.5 187.5M1447.5 217.5L1432.5 202.5M1387.5 217.5L1372.5 202.5L1357.5 202.5L1342.5 187.5L1327.5 187.5M1462.5 217.5L1447.5 217.5L1432.5 217.5L1417.5 217.5L1402.5 217.5L1387.5 217.5L1372.5 217.5L1357.5 217.5L1342.5 217.5L1327.5 217.5L1312.5 202.5L1297.5 202.5L1282.5 202.5L1267.5 202.5L1252.5 202.5L1237.5 202.5L1222.5 202.5L1207.5 202.5L1192.5 202.5L1177.5 202.5L1162.5 187.5L1147.5 187.5L1132.5 187.5L1117.5 187.5" stroke="#3a7cc3" stroke-width="2.5"></path><path d="M1113.75 187.5 a3.75 3.75 0 1 0 7.5 0 a3.75 3.75 0 1 0 -7.5 0zM1083.75 172.5 a3.75 3.75 0 1 0 7.5 0 a3.75 3.75 0 1 0 -7.5 0zM1278.75 187.5 a3.75 3.75 0 1 0 7.5 0 a3.75 3.75 0 1 0 -7.5 0zM1293.75 187.5 a3.75 3.75 0 1 0 7.5 0 a3.75 3.75 0 1 0 -7.5 0zM1428.75 202.5 a3.75 3.75 0 1 0 7.5 0 a3.75 3.75 0 1 0 -7.5 0zM1323.75 187.5 a3.75 3.75 0 1 0 7.5 0 a3.75 3.75 0 1 0 -7.5 0z" fill="#3a7cc3"></path><path d="M1387.5 367.5L1372.5 382.5M1462.5 352.5L1447.5 352.5L1432.5 352.5L1417.5 367.5L1402.5 367.5L1387.5 367.5L1372.5 367.5L1357.5 382.5L1342.5 382.5L1327.5 382.5L1312.5 397.5L1297.5 412.5L1282.5 412.5" stroke="#3a7cc3" stroke-width="2.5"></path><path d="M1278.75 412.5 a3.75 3.75 0 1 0 7.5 0 a3.75 3.75 0 1 0 -7.5 0zM1368.75 382.5 a3.75 3.75 0 1 0 7.5 0 a3.75 3.75 0 1 0 -7.5 0z" fill="#3a7cc3"></path><path d="M1372.5 172.5L1357.5 187.5M1102.5 142.5L1087.5 157.5L1072.5 157.5L1057.5 157.5L1042.5 157.5M1267.5 172.5L1252.5 172.5L1237.5 172.5L1222.5 172.5L1207.5 172.5M1432.5 172.5L1417.5 187.5L1402.5 187.5L1387.5 187.5L1372.5 187.5M1447.5 187.5L1432.5 187.5M1162.5 172.5L1147.5 172.5M1192.5 187.5L1177.5 172.5M1117.5 142.5L1102.5 157.5M1462.5 202.5L1447.5 187.5L1432.5 172.5L1417.5 172.5L1402.5 172.5L1387.5 172.5L1372.5 172.5L1357.5 172.5L1342.5 172.5L1327.5 172.5L1312.5 172.5L1297.5 172.5L1282.5 172.5L1267.5 172.5L1252.5 187.5L1237.5 187.5L1222.5 187.5L1207.5 187.5L1192.5 187.5L1177.5 187.5L1162.5 172.5L1147.5 157.5L1132.5 157.5L1117.5 142.5L1102.5 142.5L1087.5 142.5L1072.5 142.5L1057.5 142.5L1042.5 142.5L1027.5 142.5L1012.5 142.5L997.5 142.5" stroke="rgba(23, 53, 179, 1)" stroke-width="2.5"></path><path d="M993.75 142.5 a3.75 3.75 0 1 0 7.5 0 a3.75 3.75 0 1 0 -7.5 0zM1353.75 187.5 a3.75 3.75 0 1 0 7.5 0 a3.75 3.75 0 1 0 -7.5 0zM1038.75 157.5 a3.75 3.75 0 1 0 7.5 0 a3.75 3.75 0 1 0 -7.5 0zM1203.75 172.5 a3.75 3.75 0 1 0 7.5 0 a3.75 3.75 0 1 0 -7.5 0zM1368.75 187.5 a3.75 3.75 0 1 0 7.5 0 a3.75 3.75 0 1 0 -7.5 0zM1428.75 187.5 a3.75 3.75 0 1 0 7.5 0 a3.75 3.75 0 1 0 -7.5 0zM1143.75 172.5 a3.75 3.75 0 1 0 7.5 0 a3.75 3.75 0 1 0 -7.5 0zM1173.75 172.5 a3.75 3.75 0 1 0 7.5 0 a3.75 3.75 0 1 0 -7.5 0zM1098.75 157.5 a3.75 3.75 0 1 0 7.5 0 a3.75 3.75 0 1 0 -7.5 0z" fill="rgba(23, 53, 179, 1)"></path><path d="M1402.5 382.5L1387.5 382.5M1462.5 367.5L1447.5 367.5L1432.5 367.5L1417.5 382.5L1402.5 382.5L1387.5 397.5L1372.5 397.5L1357.5 397.5L1342.5 397.5L1327.5 397.5L1312.5 412.5L1297.5 427.5L1282.5 427.5" stroke="rgba(23, 53, 179, 1)" stroke-width="2.5"></path><path d="M1278.75 427.5 a3.75 3.75 0 1 0 7.5 0 a3.75 3.75 0 1 0 -7.5 0zM1383.75 382.5 a3.75 3.75 0 1 0 7.5 0 a3.75 3.75 0 1 0 -7.5 0z" fill="rgba(23, 53, 179, 1)"></path><path d="M1462.5 382.5L1447.5 382.5L1432.5 382.5L1417.5 397.5L1402.5 397.5L1387.5 412.5L1372.5 412.5L1357.5 412.5L1342.5 412.5L1327.5 412.5L1312.5 427.5L1297.5 442.5L1282.5 442.5" stroke="#3a7cc3" stroke-width="2.5"></path><path d="M1278.75 442.5 a3.75 3.75 0 1 0 7.5 0 a3.75 3.75 0 1 0 -7.5 0z" fill="#3a7cc3"></path><path d="M1297.5 157.5L1282.5 142.5L1267.5 142.5M1342.5 157.5L1327.5 142.5L1312.5 142.5L1297.5 142.5M1207.5 157.5L1192.5 142.5L1177.5 127.5L1162.5 127.5L1147.5 127.5L1132.5 127.5L1117.5 112.5M1387.5 157.5L1372.5 142.5M1072.5 127.5L1057.5 112.5L1042.5 112.5L1027.5 112.5L1012.5 112.5M1177.5 157.5L1162.5 142.5M1222.5 157.5L1207.5 142.5L1192.5 127.5L1177.5 112.5L1162.5 112.5L1147.5 97.5L1132.5 97.5L1117.5 97.5L1102.5 97.5M1462.5 172.5L1447.5 157.5L1432.5 157.5L1417.5 157.5L1402.5 157.5L1387.5 157.5L1372.5 157.5L1357.5 157.5L1342.5 157.5L1327.5 157.5L1312.5 157.5L1297.5 157.5L1282.5 157.5L1267.5 157.5L1252.5 157.5L1237.5 157.5L1222.5 157.5L1207.5 157.5L1192.5 157.5L1177.5 157.5L1162.5 157.5L1147.5 142.5L1132.5 142.5L1117.5 127.5L1102.5 127.5L1087.5 127.5L1072.5 127.5L1057.5 127.5L1042.5 127.5L1027.5 127.5L1012.5 127.5" stroke="rgba(23, 53, 179, 1)" stroke-width="2.5"></path><path d="M1008.75 127.5 a3.75 3.75 0 1 0 7.5 0 a3.75 3.75 0 1 0 -7.5 0zM1263.75 142.5 a3.75 3.75 0 1 0 7.5 0 a3.75 3.75 0 1 0 -7.5 0zM1293.75 142.5 a3.75 3.75 0 1 0 7.5 0 a3.75 3.75 0 1 0 -7.5 0zM1113.75 112.5 a3.75 3.75 0 1 0 7.5 0 a3.75 3.75 0 1 0 -7.5 0zM1368.75 142.5 a3.75 3.75 0 1 0 7.5 0 a3.75 3.75 0 1 0 -7.5 0zM1008.75 112.5 a3.75 3.75 0 1 0 7.5 0 a3.75 3.75 0 1 0 -7.5 0zM1158.75 142.5 a3.75 3.75 0 1 0 7.5 0 a3.75 3.75 0 1 0 -7.5 0zM1098.75 97.5 a3.75 3.75 0 1 0 7.5 0 a3.75 3.75 0 1 0 -7.5 0z" fill="rgba(23, 53, 179, 1)"></path><path d="M1252.5 457.5L1237.5 442.5L1222.5 442.5M1057.5 487.5L1042.5 472.5L1027.5 472.5L1012.5 472.5M1087.5 472.5L1072.5 457.5L1057.5 457.5L1042.5 457.5L1027.5 457.5L1012.5 457.5L997.5 442.5L982.5 442.5L967.5 442.5L952.5 427.5M1177.5 472.5L1162.5 457.5M1267.5 457.5L1252.5 442.5M1207.5 472.5L1192.5 457.5L1177.5 457.5M1132.5 472.5L1117.5 457.5M1462.5 397.5L1447.5 397.5L1432.5 397.5L1417.5 412.5L1402.5 427.5L1387.5 427.5L1372.5 427.5L1357.5 427.5L1342.5 427.5L1327.5 427.5L1312.5 442.5L1297.5 457.5L1282.5 457.5L1267.5 457.5L1252.5 457.5L1237.5 457.5L1222.5 457.5L1207.5 472.5L1192.5 472.5L1177.5 472.5L1162.5 472.5L1147.5 472.5L1132.5 472.5L1117.5 472.5L1102.5 472.5L1087.5 472.5L1072.5 472.5L1057.5 487.5L1042.5 487.5L1027.5 487.5L1012.5 487.5" stroke="rgba(23, 53, 179, 1)" stroke-width="2.5"></path><path d="M1008.75 487.5 a3.75 3.75 0 1 0 7.5 0 a3.75 3.75 0 1 0 -7.5 0zM1218.75 442.5 a3.75 3.75 0 1 0 7.5 0 a3.75 3.75 0 1 0 -7.5 0zM1008.75 472.5 a3.75 3.75 0 1 0 7.5 0 a3.75 3.75 0 1 0 -7.5 0zM948.75 427.5 a3.75 3.75 0 1 0 7.5 0 a3.75 3.75 0 1 0 -7.5 0zM1158.75 457.5 a3.75 3.75 0 1 0 7.5 0 a3.75 3.75 0 1 0 -7.5 0zM1248.75 442.5 a3.75 3.75 0 1 0 7.5 0 a3.75 3.75 0 1 0 -7.5 0zM1173.75 457.5 a3.75 3.75 0 1 0 7.5 0 a3.75 3.75 0 1 0 -7.5 0zM1113.75 457.5 a3.75 3.75 0 1 0 7.5 0 a3.75 3.75 0 1 0 -7.5 0z" fill="rgba(23, 53, 179, 1)"></path><path d="M1297.5 472.5L1282.5 487.5L1267.5 487.5L1252.5 487.5L1237.5 487.5L1222.5 487.5L1207.5 502.5L1192.5 502.5M1042.5 502.5L1027.5 517.5L1012.5 517.5M1057.5 502.5L1042.5 517.5L1027.5 532.5L1012.5 532.5L997.5 532.5L982.5 532.5L967.5 532.5L952.5 532.5M1177.5 487.5L1162.5 502.5L1147.5 502.5M1342.5 442.5L1327.5 457.5M1102.5 487.5L1087.5 502.5L1072.5 502.5M1132.5 487.5L1117.5 502.5L1102.5 502.5L1087.5 517.5L1072.5 517.5L1057.5 517.5L1042.5 532.5M1372.5 442.5L1357.5 457.5L1342.5 457.5L1327.5 472.5M1462.5 412.5L1447.5 412.5L1432.5 412.5L1417.5 427.5L1402.5 442.5L1387.5 442.5L1372.5 442.5L1357.5 442.5L1342.5 442.5L1327.5 442.5L1312.5 457.5L1297.5 472.5L1282.5 472.5L1267.5 472.5L1252.5 472.5L1237.5 472.5L1222.5 472.5L1207.5 487.5L1192.5 487.5L1177.5 487.5L1162.5 487.5L1147.5 487.5L1132.5 487.5L1117.5 487.5L1102.5 487.5L1087.5 487.5L1072.5 487.5L1057.5 502.5L1042.5 502.5L1027.5 502.5L1012.5 502.5L997.5 502.5" stroke="#3a7cc3" stroke-width="2.5"></path><path d="M993.75 502.5 a3.75 3.75 0 1 0 7.5 0 a3.75 3.75 0 1 0 -7.5 0zM1188.75 502.5 a3.75 3.75 0 1 0 7.5 0 a3.75 3.75 0 1 0 -7.5 0zM1008.75 517.5 a3.75 3.75 0 1 0 7.5 0 a3.75 3.75 0 1 0 -7.5 0zM948.75 532.5 a3.75 3.75 0 1 0 7.5 0 a3.75 3.75 0 1 0 -7.5 0zM1143.75 502.5 a3.75 3.75 0 1 0 7.5 0 a3.75 3.75 0 1 0 -7.5 0zM1323.75 457.5 a3.75 3.75 0 1 0 7.5 0 a3.75 3.75 0 1 0 -7.5 0zM1068.75 502.5 a3.75 3.75 0 1 0 7.5 0 a3.75 3.75 0 1 0 -7.5 0zM1038.75 532.5 a3.75 3.75 0 1 0 7.5 0 a3.75 3.75 0 1 0 -7.5 0zM1323.75 472.5 a3.75 3.75 0 1 0 7.5 0 a3.75 3.75 0 1 0 -7.5 0z" fill="#3a7cc3"></path><path d="M1402.5 142.5L1387.5 142.5M1387.5 127.5L1372.5 112.5L1357.5 112.5L1342.5 112.5M1267.5 112.5L1252.5 97.5L1237.5 97.5M1447.5 142.5L1432.5 127.5L1417.5 127.5L1402.5 127.5L1387.5 112.5M1462.5 142.5L1447.5 142.5L1432.5 142.5L1417.5 142.5L1402.5 142.5L1387.5 127.5L1372.5 127.5L1357.5 127.5L1342.5 127.5L1327.5 127.5L1312.5 127.5L1297.5 127.5L1282.5 127.5L1267.5 112.5L1252.5 112.5L1237.5 112.5L1222.5 112.5L1207.5 112.5" stroke="#3a7cc3" stroke-width="2.5"></path><path d="M1203.75 112.5 a3.75 3.75 0 1 0 7.5 0 a3.75 3.75 0 1 0 -7.5 0zM1383.75 142.5 a3.75 3.75 0 1 0 7.5 0 a3.75 3.75 0 1 0 -7.5 0zM1338.75 112.5 a3.75 3.75 0 1 0 7.5 0 a3.75 3.75 0 1 0 -7.5 0zM1233.75 97.5 a3.75 3.75 0 1 0 7.5 0 a3.75 3.75 0 1 0 -7.5 0zM1383.75 112.5 a3.75 3.75 0 1 0 7.5 0 a3.75 3.75 0 1 0 -7.5 0z" fill="#3a7cc3"></path></g></g><defs><mask id="SvgjsMask1274"><rect width="1440" height="560" fill="#ffffff"></rect></mask><mask id="SvgjsMask1275"><rect width="1440" height="560" fill="white"></rect><path d="M1295.62 292.5 a1.88 1.88 0 1 0 3.76 0 a1.88 1.88 0 1 0 -3.76 0z" fill="black"></path><path d="M1010.62 292.5 a1.88 1.88 0 1 0 3.76 0 a1.88 1.88 0 1 0 -3.76 0zM1115.62 307.5 a1.88 1.88 0 1 0 3.76 0 a1.88 1.88 0 1 0 -3.76 0zM950.62 307.5 a1.88 1.88 0 1 0 3.76 0 a1.88 1.88 0 1 0 -3.76 0zM950.62 277.5 a1.88 1.88 0 1 0 3.76 0 a1.88 1.88 0 1 0 -3.76 0zM1235.62 337.5 a1.88 1.88 0 1 0 3.76 0 a1.88 1.88 0 1 0 -3.76 0zM1145.62 307.5 a1.88 1.88 0 1 0 3.76 0 a1.88 1.88 0 1 0 -3.76 0zM1250.62 307.5 a1.88 1.88 0 1 0 3.76 0 a1.88 1.88 0 1 0 -3.76 0zM1220.62 292.5 a1.88 1.88 0 1 0 3.76 0 a1.88 1.88 0 1 0 -3.76 0z" fill="black"></path><path d="M1010.62 247.5 a1.88 1.88 0 1 0 3.76 0 a1.88 1.88 0 1 0 -3.76 0zM1385.62 277.5 a1.88 1.88 0 1 0 3.76 0 a1.88 1.88 0 1 0 -3.76 0zM980.62 232.5 a1.88 1.88 0 1 0 3.76 0 a1.88 1.88 0 1 0 -3.76 0zM1175.62 247.5 a1.88 1.88 0 1 0 3.76 0 a1.88 1.88 0 1 0 -3.76 0zM995.62 217.5 a1.88 1.88 0 1 0 3.76 0 a1.88 1.88 0 1 0 -3.76 0zM995.62 262.5 a1.88 1.88 0 1 0 3.76 0 a1.88 1.88 0 1 0 -3.76 0zM1085.62 247.5 a1.88 1.88 0 1 0 3.76 0 a1.88 1.88 0 1 0 -3.76 0zM1265.62 247.5 a1.88 1.88 0 1 0 3.76 0 a1.88 1.88 0 1 0 -3.76 0z" fill="black"></path><path d="M1190.62 367.5 a1.88 1.88 0 1 0 3.76 0 a1.88 1.88 0 1 0 -3.76 0zM1340.62 322.5 a1.88 1.88 0 1 0 3.76 0 a1.88 1.88 0 1 0 -3.76 0zM1280.62 337.5 a1.88 1.88 0 1 0 3.76 0 a1.88 1.88 0 1 0 -3.76 0zM1175.62 352.5 a1.88 1.88 0 1 0 3.76 0 a1.88 1.88 0 1 0 -3.76 0z" fill="black"></path><path d="M1100.62 202.5 a1.88 1.88 0 1 0 3.76 0 a1.88 1.88 0 1 0 -3.76 0zM1325.62 247.5 a1.88 1.88 0 1 0 3.76 0 a1.88 1.88 0 1 0 -3.76 0zM1370.62 247.5 a1.88 1.88 0 1 0 3.76 0 a1.88 1.88 0 1 0 -3.76 0zM1205.62 232.5 a1.88 1.88 0 1 0 3.76 0 a1.88 1.88 0 1 0 -3.76 0zM1145.62 217.5 a1.88 1.88 0 1 0 3.76 0 a1.88 1.88 0 1 0 -3.76 0zM1040.62 232.5 a1.88 1.88 0 1 0 3.76 0 a1.88 1.88 0 1 0 -3.76 0zM1220.62 247.5 a1.88 1.88 0 1 0 3.76 0 a1.88 1.88 0 1 0 -3.76 0z" fill="black"></path><path d="M1070.62 382.5 a1.88 1.88 0 1 0 3.76 0 a1.88 1.88 0 1 0 -3.76 0zM1115.62 367.5 a1.88 1.88 0 1 0 3.76 0 a1.88 1.88 0 1 0 -3.76 0zM1115.62 397.5 a1.88 1.88 0 1 0 3.76 0 a1.88 1.88 0 1 0 -3.76 0zM1265.62 382.5 a1.88 1.88 0 1 0 3.76 0 a1.88 1.88 0 1 0 -3.76 0zM1025.62 352.5 a1.88 1.88 0 1 0 3.76 0 a1.88 1.88 0 1 0 -3.76 0zM1160.62 397.5 a1.88 1.88 0 1 0 3.76 0 a1.88 1.88 0 1 0 -3.76 0zM1160.62 412.5 a1.88 1.88 0 1 0 3.76 0 a1.88 1.88 0 1 0 -3.76 0z" fill="black"></path><path d="M1400.62 232.5 a1.88 1.88 0 1 0 3.76 0 a1.88 1.88 0 1 0 -3.76 0z" fill="black"></path><path d="M1085.62 427.5 a1.88 1.88 0 1 0 3.76 0 a1.88 1.88 0 1 0 -3.76 0zM1160.62 442.5 a1.88 1.88 0 1 0 3.76 0 a1.88 1.88 0 1 0 -3.76 0zM1205.62 427.5 a1.88 1.88 0 1 0 3.76 0 a1.88 1.88 0 1 0 -3.76 0zM1235.62 397.5 a1.88 1.88 0 1 0 3.76 0 a1.88 1.88 0 1 0 -3.76 0zM1175.62 442.5 a1.88 1.88 0 1 0 3.76 0 a1.88 1.88 0 1 0 -3.76 0zM1100.62 412.5 a1.88 1.88 0 1 0 3.76 0 a1.88 1.88 0 1 0 -3.76 0zM1085.62 442.5 a1.88 1.88 0 1 0 3.76 0 a1.88 1.88 0 1 0 -3.76 0z" fill="black"></path><path d="M1115.62 187.5 a1.88 1.88 0 1 0 3.76 0 a1.88 1.88 0 1 0 -3.76 0zM1085.62 172.5 a1.88 1.88 0 1 0 3.76 0 a1.88 1.88 0 1 0 -3.76 0zM1280.62 187.5 a1.88 1.88 0 1 0 3.76 0 a1.88 1.88 0 1 0 -3.76 0zM1295.62 187.5 a1.88 1.88 0 1 0 3.76 0 a1.88 1.88 0 1 0 -3.76 0zM1430.62 202.5 a1.88 1.88 0 1 0 3.76 0 a1.88 1.88 0 1 0 -3.76 0zM1325.62 187.5 a1.88 1.88 0 1 0 3.76 0 a1.88 1.88 0 1 0 -3.76 0z" fill="black"></path><path d="M1280.62 412.5 a1.88 1.88 0 1 0 3.76 0 a1.88 1.88 0 1 0 -3.76 0zM1370.62 382.5 a1.88 1.88 0 1 0 3.76 0 a1.88 1.88 0 1 0 -3.76 0z" fill="black"></path><path d="M995.62 142.5 a1.88 1.88 0 1 0 3.76 0 a1.88 1.88 0 1 0 -3.76 0zM1355.62 187.5 a1.88 1.88 0 1 0 3.76 0 a1.88 1.88 0 1 0 -3.76 0zM1040.62 157.5 a1.88 1.88 0 1 0 3.76 0 a1.88 1.88 0 1 0 -3.76 0zM1205.62 172.5 a1.88 1.88 0 1 0 3.76 0 a1.88 1.88 0 1 0 -3.76 0zM1370.62 187.5 a1.88 1.88 0 1 0 3.76 0 a1.88 1.88 0 1 0 -3.76 0zM1430.62 187.5 a1.88 1.88 0 1 0 3.76 0 a1.88 1.88 0 1 0 -3.76 0zM1145.62 172.5 a1.88 1.88 0 1 0 3.76 0 a1.88 1.88 0 1 0 -3.76 0zM1175.62 172.5 a1.88 1.88 0 1 0 3.76 0 a1.88 1.88 0 1 0 -3.76 0zM1100.62 157.5 a1.88 1.88 0 1 0 3.76 0 a1.88 1.88 0 1 0 -3.76 0z" fill="black"></path><path d="M1280.62 427.5 a1.88 1.88 0 1 0 3.76 0 a1.88 1.88 0 1 0 -3.76 0zM1385.62 382.5 a1.88 1.88 0 1 0 3.76 0 a1.88 1.88 0 1 0 -3.76 0z" fill="black"></path><path d="M1280.62 442.5 a1.88 1.88 0 1 0 3.76 0 a1.88 1.88 0 1 0 -3.76 0z" fill="black"></path><path d="M1010.62 127.5 a1.88 1.88 0 1 0 3.76 0 a1.88 1.88 0 1 0 -3.76 0zM1265.62 142.5 a1.88 1.88 0 1 0 3.76 0 a1.88 1.88 0 1 0 -3.76 0zM1295.62 142.5 a1.88 1.88 0 1 0 3.76 0 a1.88 1.88 0 1 0 -3.76 0zM1115.62 112.5 a1.88 1.88 0 1 0 3.76 0 a1.88 1.88 0 1 0 -3.76 0zM1370.62 142.5 a1.88 1.88 0 1 0 3.76 0 a1.88 1.88 0 1 0 -3.76 0zM1010.62 112.5 a1.88 1.88 0 1 0 3.76 0 a1.88 1.88 0 1 0 -3.76 0zM1160.62 142.5 a1.88 1.88 0 1 0 3.76 0 a1.88 1.88 0 1 0 -3.76 0zM1100.62 97.5 a1.88 1.88 0 1 0 3.76 0 a1.88 1.88 0 1 0 -3.76 0z" fill="black"></path><path d="M1010.62 487.5 a1.88 1.88 0 1 0 3.76 0 a1.88 1.88 0 1 0 -3.76 0zM1220.62 442.5 a1.88 1.88 0 1 0 3.76 0 a1.88 1.88 0 1 0 -3.76 0zM1010.62 472.5 a1.88 1.88 0 1 0 3.76 0 a1.88 1.88 0 1 0 -3.76 0zM950.62 427.5 a1.88 1.88 0 1 0 3.76 0 a1.88 1.88 0 1 0 -3.76 0zM1160.62 457.5 a1.88 1.88 0 1 0 3.76 0 a1.88 1.88 0 1 0 -3.76 0zM1250.62 442.5 a1.88 1.88 0 1 0 3.76 0 a1.88 1.88 0 1 0 -3.76 0zM1175.62 457.5 a1.88 1.88 0 1 0 3.76 0 a1.88 1.88 0 1 0 -3.76 0zM1115.62 457.5 a1.88 1.88 0 1 0 3.76 0 a1.88 1.88 0 1 0 -3.76 0z" fill="black"></path><path d="M995.62 502.5 a1.88 1.88 0 1 0 3.76 0 a1.88 1.88 0 1 0 -3.76 0zM1190.62 502.5 a1.88 1.88 0 1 0 3.76 0 a1.88 1.88 0 1 0 -3.76 0zM1010.62 517.5 a1.88 1.88 0 1 0 3.76 0 a1.88 1.88 0 1 0 -3.76 0zM950.62 532.5 a1.88 1.88 0 1 0 3.76 0 a1.88 1.88 0 1 0 -3.76 0zM1145.62 502.5 a1.88 1.88 0 1 0 3.76 0 a1.88 1.88 0 1 0 -3.76 0zM1325.62 457.5 a1.88 1.88 0 1 0 3.76 0 a1.88 1.88 0 1 0 -3.76 0zM1070.62 502.5 a1.88 1.88 0 1 0 3.76 0 a1.88 1.88 0 1 0 -3.76 0zM1040.62 532.5 a1.88 1.88 0 1 0 3.76 0 a1.88 1.88 0 1 0 -3.76 0zM1325.62 472.5 a1.88 1.88 0 1 0 3.76 0 a1.88 1.88 0 1 0 -3.76 0z" fill="black"></path><path d="M1205.62 112.5 a1.88 1.88 0 1 0 3.76 0 a1.88 1.88 0 1 0 -3.76 0zM1385.62 142.5 a1.88 1.88 0 1 0 3.76 0 a1.88 1.88 0 1 0 -3.76 0zM1340.62 112.5 a1.88 1.88 0 1 0 3.76 0 a1.88 1.88 0 1 0 -3.76 0zM1235.62 97.5 a1.88 1.88 0 1 0 3.76 0 a1.88 1.88 0 1 0 -3.76 0zM1385.62 112.5 a1.88 1.88 0 1 0 3.76 0 a1.88 1.88 0 1 0 -3.76 0z" fill="black"></path></mask></defs></svg>