<svg xmlns="http://www.w3.org/2000/svg" version="1.1" xmlns:xlink="http://www.w3.org/1999/xlink" xmlns:svgjs="http://svgjs.dev/svgjs" width="1440" height="560" preserveAspectRatio="none" viewBox="0 0 1440 560"><g mask="url(&quot;#SvgjsMask1000&quot;)" fill="none"><rect width="1440" height="560" x="0" y="0" fill="#0e2a47"></rect><path d="M-70.27 408.86L-70.27 408.86" stroke="#132e65" stroke-width="1.5"></path><path d="M-70.27 408.86L52.97 378.77" stroke="#132e65" stroke-width="1.5"></path><path d="M-70.27 408.86L97.51 540.78" stroke="#132e65" stroke-width="1.5"></path><path d="M-70.27 408.86L80.17 645.93" stroke="#132e65" stroke-width="1.5"></path><path d="M-70.27 408.86L-77.46 699.32" stroke="#132e65" stroke-width="1.5"></path><path d="M-70.27 408.86L203.35 530.05" stroke="#132e65" stroke-width="1.5"></path><path d="M-70.27 408.86L251.33 350.06" stroke="#132e65" stroke-width="1.5"></path><path d="M-77.46 699.32L-77.46 699.32" stroke="#132e65" stroke-width="1.5"></path><path d="M-77.46 699.32L80.17 645.93" stroke="#132e65" stroke-width="1.5"></path><path d="M-77.46 699.32L97.51 540.78" stroke="#132e65" stroke-width="1.5"></path><path d="M-77.46 699.32L203.35 530.05" stroke="#132e65" stroke-width="1.5"></path><path d="M-77.46 699.32L260.13 688.99" stroke="#132e65" stroke-width="1.5"></path><path d="M-77.46 699.32L52.97 378.77" stroke="#132e65" stroke-width="1.5"></path><path d="M52.97 378.77L52.97 378.77" stroke="#132e65" stroke-width="1.5"></path><path d="M52.97 378.77L97.51 540.78" stroke="#132e65" stroke-width="1.5"></path><path d="M52.97 378.77L251.33 350.06" stroke="#132e65" stroke-width="1.5"></path><path d="M52.97 378.77L203.35 530.05" stroke="#132e65" stroke-width="1.5"></path><path d="M52.97 378.77L80.17 645.93" stroke="#132e65" stroke-width="1.5"></path><path d="M97.51 540.78L97.51 540.78" stroke="#132e65" stroke-width="1.5"></path><path d="M97.51 540.78L203.35 530.05" stroke="#132e65" stroke-width="1.5"></path><path d="M97.51 540.78L80.17 645.93" stroke="#132e65" stroke-width="1.5"></path><path d="M97.51 540.78L260.13 688.99" stroke="#132e65" stroke-width="1.5"></path><path d="M80.17 645.93L80.17 645.93" stroke="#132e65" stroke-width="1.5"></path><path d="M80.17 645.93L203.35 530.05" stroke="#132e65" stroke-width="1.5"></path><path d="M80.17 645.93L260.13 688.99" stroke="#132e65" stroke-width="1.5"></path><path d="M251.33 350.06L251.33 350.06" stroke="#132e65" stroke-width="1.5"></path><path d="M251.33 350.06L203.35 530.05" stroke="#132e65" stroke-width="1.5"></path><path d="M203.35 530.05L203.35 530.05" stroke="#132e65" stroke-width="1.5"></path><path d="M203.35 530.05L260.13 688.99" stroke="#132e65" stroke-width="1.5"></path><path d="M260.13 688.99L260.13 688.99" stroke="#132e65" stroke-width="1.5"></path><path d="M260.13 688.99L398.9 703.62" stroke="#132e65" stroke-width="1.5"></path><path d="M260.13 688.99L405.12 529.06" stroke="#132e65" stroke-width="1.5"></path><path d="M260.13 688.99L521.46 668.85" stroke="#132e65" stroke-width="1.5"></path><path d="M405.12 529.06L405.12 529.06" stroke="#132e65" stroke-width="1.5"></path><path d="M405.12 529.06L488.84 510.29" stroke="#132e65" stroke-width="1.5"></path><path d="M405.12 529.06L398.9 703.62" stroke="#132e65" stroke-width="1.5"></path><path d="M405.12 529.06L521.46 668.85" stroke="#132e65" stroke-width="1.5"></path><path d="M398.9 703.62L398.9 703.62" stroke="#132e65" stroke-width="1.5"></path><path d="M398.9 703.62L521.46 668.85" stroke="#132e65" stroke-width="1.5"></path><path d="M556.63 367.85L556.63 367.85" stroke="#132e65" stroke-width="1.5"></path><path d="M556.63 367.85L642.43 252.24" stroke="#132e65" stroke-width="1.5"></path><path d="M556.63 367.85L707.74 340.93" stroke="#132e65" stroke-width="1.5"></path><path d="M556.63 367.85L488.84 510.29" stroke="#132e65" stroke-width="1.5"></path><path d="M556.63 367.85L676.25 524.17" stroke="#132e65" stroke-width="1.5"></path><path d="M488.84 510.29L488.84 510.29" stroke="#132e65" stroke-width="1.5"></path><path d="M521.46 668.85L521.46 668.85" stroke="#132e65" stroke-width="1.5"></path><path d="M521.46 668.85L488.84 510.29" stroke="#132e65" stroke-width="1.5"></path><path d="M521.46 668.85L690.58 696.81" stroke="#132e65" stroke-width="1.5"></path><path d="M642.43 252.24L642.43 252.24" stroke="#132e65" stroke-width="1.5"></path><path d="M642.43 252.24L707.74 340.93" stroke="#132e65" stroke-width="1.5"></path><path d="M707.74 340.93L707.74 340.93" stroke="#132e65" stroke-width="1.5"></path><path d="M707.74 340.93L853.13 369.23" stroke="#132e65" stroke-width="1.5"></path><path d="M707.74 340.93L676.25 524.17" stroke="#132e65" stroke-width="1.5"></path><path d="M676.25 524.17L676.25 524.17" stroke="#132e65" stroke-width="1.5"></path><path d="M676.25 524.17L690.58 696.81" stroke="#132e65" stroke-width="1.5"></path><path d="M690.58 696.81L690.58 696.81" stroke="#132e65" stroke-width="1.5"></path><path d="M690.58 696.81L826.98 695.04" stroke="#132e65" stroke-width="1.5"></path><path d="M850.7 201.42L850.7 201.42" stroke="#132e65" stroke-width="1.5"></path><path d="M850.7 201.42L937.79 211.29" stroke="#132e65" stroke-width="1.5"></path><path d="M853.13 369.23L853.13 369.23" stroke="#132e65" stroke-width="1.5"></path><path d="M853.13 369.23L950.39 368.77" stroke="#132e65" stroke-width="1.5"></path><path d="M826.98 695.04L826.98 695.04" stroke="#132e65" stroke-width="1.5"></path><path d="M826.98 695.04L995.47 668.41" stroke="#132e65" stroke-width="1.5"></path><path d="M975.22 -74L975.22 -74" stroke="#132e65" stroke-width="1.5"></path><path d="M975.22 -74L1134.96 -72.92" stroke="#132e65" stroke-width="1.5"></path><path d="M975.22 -74L944.51 92.96" stroke="#132e65" stroke-width="1.5"></path><path d="M975.22 -74L1139.64 73.81" stroke="#132e65" stroke-width="1.5"></path><path d="M975.22 -74L937.79 211.29" stroke="#132e65" stroke-width="1.5"></path><path d="M975.22 -74L1264.84 -50.21" stroke="#132e65" stroke-width="1.5"></path><path d="M975.22 -74L850.7 201.42" stroke="#132e65" stroke-width="1.5"></path><path d="M944.51 92.96L944.51 92.96" stroke="#132e65" stroke-width="1.5"></path><path d="M944.51 92.96L937.79 211.29" stroke="#132e65" stroke-width="1.5"></path><path d="M944.51 92.96L850.7 201.42" stroke="#132e65" stroke-width="1.5"></path><path d="M937.79 211.29L937.79 211.29" stroke="#132e65" stroke-width="1.5"></path><path d="M937.79 211.29L950.39 368.77" stroke="#132e65" stroke-width="1.5"></path><path d="M937.79 211.29L853.13 369.23" stroke="#132e65" stroke-width="1.5"></path><path d="M950.39 368.77L950.39 368.77" stroke="#132e65" stroke-width="1.5"></path><path d="M950.39 368.77L1095.89 381.63" stroke="#132e65" stroke-width="1.5"></path><path d="M950.39 368.77L983.11 530.9" stroke="#132e65" stroke-width="1.5"></path><path d="M950.39 368.77L850.7 201.42" stroke="#132e65" stroke-width="1.5"></path><path d="M950.39 368.77L1152.82 249.86" stroke="#132e65" stroke-width="1.5"></path><path d="M983.11 530.9L983.11 530.9" stroke="#132e65" stroke-width="1.5"></path><path d="M983.11 530.9L995.47 668.41" stroke="#132e65" stroke-width="1.5"></path><path d="M983.11 530.9L1145.65 560.97" stroke="#132e65" stroke-width="1.5"></path><path d="M995.47 668.41L995.47 668.41" stroke="#132e65" stroke-width="1.5"></path><path d="M995.47 668.41L1091.85 660.58" stroke="#132e65" stroke-width="1.5"></path><path d="M995.47 668.41L1145.65 560.97" stroke="#132e65" stroke-width="1.5"></path><path d="M1134.96 -72.92L1134.96 -72.92" stroke="#132e65" stroke-width="1.5"></path><path d="M1134.96 -72.92L1264.84 -50.21" stroke="#132e65" stroke-width="1.5"></path><path d="M1134.96 -72.92L1139.64 73.81" stroke="#132e65" stroke-width="1.5"></path><path d="M1134.96 -72.92L1308.16 91.1" stroke="#132e65" stroke-width="1.5"></path><path d="M1139.64 73.81L1139.64 73.81" stroke="#132e65" stroke-width="1.5"></path><path d="M1139.64 73.81L1308.16 91.1" stroke="#132e65" stroke-width="1.5"></path><path d="M1139.64 73.81L1244.57 215.1" stroke="#132e65" stroke-width="1.5"></path><path d="M1139.64 73.81L1264.84 -50.21" stroke="#132e65" stroke-width="1.5"></path><path d="M1139.64 73.81L1152.82 249.86" stroke="#132e65" stroke-width="1.5"></path><path d="M1139.64 73.81L944.51 92.96" stroke="#132e65" stroke-width="1.5"></path><path d="M1152.82 249.86L1152.82 249.86" stroke="#132e65" stroke-width="1.5"></path><path d="M1152.82 249.86L1244.57 215.1" stroke="#132e65" stroke-width="1.5"></path><path d="M1152.82 249.86L1242.2 348.54" stroke="#132e65" stroke-width="1.5"></path><path d="M1152.82 249.86L1095.89 381.63" stroke="#132e65" stroke-width="1.5"></path><path d="M1152.82 249.86L937.79 211.29" stroke="#132e65" stroke-width="1.5"></path><path d="M1095.89 381.63L1095.89 381.63" stroke="#132e65" stroke-width="1.5"></path><path d="M1095.89 381.63L1242.2 348.54" stroke="#132e65" stroke-width="1.5"></path><path d="M1095.89 381.63L1145.65 560.97" stroke="#132e65" stroke-width="1.5"></path><path d="M1095.89 381.63L983.11 530.9" stroke="#132e65" stroke-width="1.5"></path><path d="M1145.65 560.97L1145.65 560.97" stroke="#132e65" stroke-width="1.5"></path><path d="M1145.65 560.97L1091.85 660.58" stroke="#132e65" stroke-width="1.5"></path><path d="M1145.65 560.97L1295.72 647.72" stroke="#132e65" stroke-width="1.5"></path><path d="M1145.65 560.97L1242.2 348.54" stroke="#132e65" stroke-width="1.5"></path><path d="M1091.85 660.58L1091.85 660.58" stroke="#132e65" stroke-width="1.5"></path><path d="M1091.85 660.58L983.11 530.9" stroke="#132e65" stroke-width="1.5"></path><path d="M1091.85 660.58L1295.72 647.72" stroke="#132e65" stroke-width="1.5"></path><path d="M1091.85 660.58L826.98 695.04" stroke="#132e65" stroke-width="1.5"></path><path d="M1264.84 -50.21L1264.84 -50.21" stroke="#132e65" stroke-width="1.5"></path><path d="M1264.84 -50.21L1308.16 91.1" stroke="#132e65" stroke-width="1.5"></path><path d="M1264.84 -50.21L1448.67 -74.49" stroke="#132e65" stroke-width="1.5"></path><path d="M1264.84 -50.21L1453.99 74.09" stroke="#132e65" stroke-width="1.5"></path><path d="M1264.84 -50.21L1244.57 215.1" stroke="#132e65" stroke-width="1.5"></path><path d="M1308.16 91.1L1308.16 91.1" stroke="#132e65" stroke-width="1.5"></path><path d="M1308.16 91.1L1244.57 215.1" stroke="#132e65" stroke-width="1.5"></path><path d="M1308.16 91.1L1453.99 74.09" stroke="#132e65" stroke-width="1.5"></path><path d="M1308.16 91.1L1428.14 209.23" stroke="#132e65" stroke-width="1.5"></path><path d="M1244.57 215.1L1244.57 215.1" stroke="#132e65" stroke-width="1.5"></path><path d="M1244.57 215.1L1242.2 348.54" stroke="#132e65" stroke-width="1.5"></path><path d="M1244.57 215.1L1428.14 209.23" stroke="#132e65" stroke-width="1.5"></path><path d="M1242.2 348.54L1242.2 348.54" stroke="#132e65" stroke-width="1.5"></path><path d="M1295.72 647.72L1295.72 647.72" stroke="#132e65" stroke-width="1.5"></path><path d="M1295.72 647.72L1425.72 660.9" stroke="#132e65" stroke-width="1.5"></path><path d="M1295.72 647.72L1452.54 508.71" stroke="#132e65" stroke-width="1.5"></path><path d="M1295.72 647.72L1540.75 638.24" stroke="#132e65" stroke-width="1.5"></path><path d="M1295.72 647.72L1428.6 384.12" stroke="#132e65" stroke-width="1.5"></path><path d="M1448.67 -74.49L1448.67 -74.49" stroke="#132e65" stroke-width="1.5"></path><path d="M1448.67 -74.49L1453.99 74.09" stroke="#132e65" stroke-width="1.5"></path><path d="M1448.67 -74.49L1610.42 -102.16" stroke="#132e65" stroke-width="1.5"></path><path d="M1448.67 -74.49L1308.16 91.1" stroke="#132e65" stroke-width="1.5"></path><path d="M1448.67 -74.49L1607.09 92.38" stroke="#132e65" stroke-width="1.5"></path><path d="M1448.67 -74.49L1428.14 209.23" stroke="#132e65" stroke-width="1.5"></path><path d="M1453.99 74.09L1453.99 74.09" stroke="#132e65" stroke-width="1.5"></path><path d="M1453.99 74.09L1428.14 209.23" stroke="#132e65" stroke-width="1.5"></path><path d="M1453.99 74.09L1607.09 92.38" stroke="#132e65" stroke-width="1.5"></path><path d="M1453.99 74.09L1580.83 212.98" stroke="#132e65" stroke-width="1.5"></path><path d="M1428.14 209.23L1428.14 209.23" stroke="#132e65" stroke-width="1.5"></path><path d="M1428.14 209.23L1580.83 212.98" stroke="#132e65" stroke-width="1.5"></path><path d="M1428.14 209.23L1428.6 384.12" stroke="#132e65" stroke-width="1.5"></path><path d="M1428.6 384.12L1428.6 384.12" stroke="#132e65" stroke-width="1.5"></path><path d="M1428.6 384.12L1452.54 508.71" stroke="#132e65" stroke-width="1.5"></path><path d="M1428.6 384.12L1562.16 360.31" stroke="#132e65" stroke-width="1.5"></path><path d="M1428.6 384.12L1242.2 348.54" stroke="#132e65" stroke-width="1.5"></path><path d="M1452.54 508.71L1452.54 508.71" stroke="#132e65" stroke-width="1.5"></path><path d="M1452.54 508.71L1602.87 510.76" stroke="#132e65" stroke-width="1.5"></path><path d="M1452.54 508.71L1425.72 660.9" stroke="#132e65" stroke-width="1.5"></path><path d="M1452.54 508.71L1540.75 638.24" stroke="#132e65" stroke-width="1.5"></path><path d="M1425.72 660.9L1425.72 660.9" stroke="#132e65" stroke-width="1.5"></path><path d="M1425.72 660.9L1540.75 638.24" stroke="#132e65" stroke-width="1.5"></path><path d="M1425.72 660.9L1602.87 510.76" stroke="#132e65" stroke-width="1.5"></path><path d="M1610.42 -102.16L1610.42 -102.16" stroke="#132e65" stroke-width="1.5"></path><path d="M1610.42 -102.16L1607.09 92.38" stroke="#132e65" stroke-width="1.5"></path><path d="M1610.42 -102.16L1453.99 74.09" stroke="#132e65" stroke-width="1.5"></path><path d="M1610.42 -102.16L1580.83 212.98" stroke="#132e65" stroke-width="1.5"></path><path d="M1610.42 -102.16L1264.84 -50.21" stroke="#132e65" stroke-width="1.5"></path><path d="M1610.42 -102.16L1308.16 91.1" stroke="#132e65" stroke-width="1.5"></path><path d="M1607.09 92.38L1607.09 92.38" stroke="#132e65" stroke-width="1.5"></path><path d="M1607.09 92.38L1580.83 212.98" stroke="#132e65" stroke-width="1.5"></path><path d="M1607.09 92.38L1428.14 209.23" stroke="#132e65" stroke-width="1.5"></path><path d="M1580.83 212.98L1580.83 212.98" stroke="#132e65" stroke-width="1.5"></path><path d="M1580.83 212.98L1562.16 360.31" stroke="#132e65" stroke-width="1.5"></path><path d="M1580.83 212.98L1428.6 384.12" stroke="#132e65" stroke-width="1.5"></path><path d="M1580.83 212.98L1602.87 510.76" stroke="#132e65" stroke-width="1.5"></path><path d="M1562.16 360.31L1562.16 360.31" stroke="#132e65" stroke-width="1.5"></path><path d="M1602.87 510.76L1602.87 510.76" stroke="#132e65" stroke-width="1.5"></path><path d="M1602.87 510.76L1540.75 638.24" stroke="#132e65" stroke-width="1.5"></path><path d="M1602.87 510.76L1562.16 360.31" stroke="#132e65" stroke-width="1.5"></path><path d="M1602.87 510.76L1428.6 384.12" stroke="#132e65" stroke-width="1.5"></path><path d="M1540.75 638.24L1540.75 638.24" stroke="#132e65" stroke-width="1.5"></path><path d="M1540.75 638.24L1428.6 384.12" stroke="#132e65" stroke-width="1.5"></path><path d="M1540.75 638.24L1562.16 360.31" stroke="#132e65" stroke-width="1.5"></path><circle r="5" cx="-70.27" cy="408.86" fill="#132e65"></circle><circle r="5" cx="-77.46" cy="699.32" fill="#132e65"></circle><circle r="5" cx="52.97" cy="378.77" fill="#132e65"></circle><circle r="5" cx="97.51" cy="540.78" fill="#132e65"></circle><circle r="5" cx="80.17" cy="645.93" fill="#132e65"></circle><circle r="5" cx="251.33" cy="350.06" fill="#132e65"></circle><circle r="5" cx="203.35" cy="530.05" fill="#132e65"></circle><circle r="5" cx="260.13" cy="688.99" fill="#132e65"></circle><circle r="5" cx="405.12" cy="529.06" fill="#132e65"></circle><circle r="5" cx="398.9" cy="703.62" fill="#132e65"></circle><circle r="5" cx="556.63" cy="367.85" fill="#132e65"></circle><circle r="5" cx="488.84" cy="510.29" fill="#132e65"></circle><circle r="5" cx="521.46" cy="668.85" fill="#132e65"></circle><circle r="5" cx="642.43" cy="252.24" fill="#132e65"></circle><circle r="5" cx="707.74" cy="340.93" fill="#132e65"></circle><circle r="5" cx="676.25" cy="524.17" fill="#132e65"></circle><circle r="5" cx="690.58" cy="696.81" fill="#132e65"></circle><circle r="5" cx="850.7" cy="201.42" fill="#132e65"></circle><circle r="5" cx="853.13" cy="369.23" fill="#132e65"></circle><circle r="5" cx="826.98" cy="695.04" fill="#132e65"></circle><circle r="5" cx="975.22" cy="-74" fill="#132e65"></circle><circle r="5" cx="944.51" cy="92.96" fill="#132e65"></circle><circle r="5" cx="937.79" cy="211.29" fill="#132e65"></circle><circle r="5" cx="950.39" cy="368.77" fill="#132e65"></circle><circle r="5" cx="983.11" cy="530.9" fill="#132e65"></circle><circle r="5" cx="995.47" cy="668.41" fill="#132e65"></circle><circle r="5" cx="1134.96" cy="-72.92" fill="#132e65"></circle><circle r="5" cx="1139.64" cy="73.81" fill="#132e65"></circle><circle r="5" cx="1152.82" cy="249.86" fill="#132e65"></circle><circle r="5" cx="1095.89" cy="381.63" fill="#132e65"></circle><circle r="5" cx="1145.65" cy="560.97" fill="#132e65"></circle><circle r="5" cx="1091.85" cy="660.58" fill="#132e65"></circle><circle r="5" cx="1264.84" cy="-50.21" fill="#132e65"></circle><circle r="5" cx="1308.16" cy="91.1" fill="#132e65"></circle><circle r="5" cx="1244.57" cy="215.1" fill="#132e65"></circle><circle r="5" cx="1242.2" cy="348.54" fill="#132e65"></circle><circle r="5" cx="1295.72" cy="647.72" fill="#132e65"></circle><circle r="5" cx="1448.67" cy="-74.49" fill="#132e65"></circle><circle r="5" cx="1453.99" cy="74.09" fill="#132e65"></circle><circle r="5" cx="1428.14" cy="209.23" fill="#132e65"></circle><circle r="5" cx="1428.6" cy="384.12" fill="#132e65"></circle><circle r="5" cx="1452.54" cy="508.71" fill="#132e65"></circle><circle r="5" cx="1425.72" cy="660.9" fill="#132e65"></circle><circle r="5" cx="1610.42" cy="-102.16" fill="#132e65"></circle><circle r="5" cx="1607.09" cy="92.38" fill="#132e65"></circle><circle r="5" cx="1580.83" cy="212.98" fill="#132e65"></circle><circle r="5" cx="1562.16" cy="360.31" fill="#132e65"></circle><circle r="5" cx="1602.87" cy="510.76" fill="#132e65"></circle><circle r="5" cx="1540.75" cy="638.24" fill="#132e65"></circle><path d="M-104.46 548.03L-104.46 548.03" stroke="hsl(228.5, 77.2%, 51.5%)" stroke-width="1.5"></path><path d="M-104.46 548.03L-43.39 665.72" stroke="hsl(228.5, 77.2%, 51.5%)" stroke-width="1.5"></path><path d="M-104.46 548.03L55.97 535.28" stroke="hsl(228.5, 77.2%, 51.5%)" stroke-width="1.5"></path><path d="M-104.46 548.03L47.55 664.54" stroke="hsl(228.5, 77.2%, 51.5%)" stroke-width="1.5"></path><path d="M-104.46 548.03L212.63 510.61" stroke="hsl(228.5, 77.2%, 51.5%)" stroke-width="1.5"></path><path d="M-104.46 548.03L207.08 670.43" stroke="hsl(228.5, 77.2%, 51.5%)" stroke-width="1.5"></path><path d="M-104.46 548.03L337.72 641.43" stroke="hsl(228.5, 77.2%, 51.5%)" stroke-width="1.5"></path><path d="M207.08 670.43L207.08 670.43" stroke="hsl(228.5, 77.2%, 51.5%)" stroke-width="1.5"></path><path d="M207.08 670.43L337.72 641.43" stroke="hsl(228.5, 77.2%, 51.5%)" stroke-width="1.5"></path><path d="M207.08 670.43L47.55 664.54" stroke="hsl(228.5, 77.2%, 51.5%)" stroke-width="1.5"></path><path d="M207.08 670.43L212.63 510.61" stroke="hsl(228.5, 77.2%, 51.5%)" stroke-width="1.5"></path><path d="M207.08 670.43L55.97 535.28" stroke="hsl(228.5, 77.2%, 51.5%)" stroke-width="1.5"></path><path d="M207.08 670.43L-43.39 665.72" stroke="hsl(228.5, 77.2%, 51.5%)" stroke-width="1.5"></path><path d="M1003.56 378.83L1003.56 378.83" stroke="hsl(228.5, 77.2%, 51.5%)" stroke-width="1.5"></path><path d="M1003.56 378.83L986.92 503.95" stroke="hsl(228.5, 77.2%, 51.5%)" stroke-width="1.5"></path><path d="M1003.56 378.83L1128.97 342.76" stroke="hsl(228.5, 77.2%, 51.5%)" stroke-width="1.5"></path><path d="M1003.56 378.83L1101.83 537.47" stroke="hsl(228.5, 77.2%, 51.5%)" stroke-width="1.5"></path><path d="M1003.56 378.83L796.01 379.18" stroke="hsl(228.5, 77.2%, 51.5%)" stroke-width="1.5"></path><path d="M1301.73 216.17L1301.73 216.17" stroke="hsl(228.5, 77.2%, 51.5%)" stroke-width="1.5"></path><path d="M1301.73 216.17L1286.48 101.45" stroke="hsl(228.5, 77.2%, 51.5%)" stroke-width="1.5"></path><path d="M1301.73 216.17L1426.59 221.51" stroke="hsl(228.5, 77.2%, 51.5%)" stroke-width="1.5"></path><path d="M1301.73 216.17L1150.37 213.12" stroke="hsl(228.5, 77.2%, 51.5%)" stroke-width="1.5"></path><path d="M1301.73 216.17L1291.32 405.28" stroke="hsl(228.5, 77.2%, 51.5%)" stroke-width="1.5"></path><path d="M1301.73 216.17L1145.34 93.68" stroke="hsl(228.5, 77.2%, 51.5%)" stroke-width="1.5"></path><path d="M1301.73 216.17L1431.47 46.97" stroke="hsl(228.5, 77.2%, 51.5%)" stroke-width="1.5"></path><path d="M1291.32 405.28L1291.32 405.28" stroke="hsl(228.5, 77.2%, 51.5%)" stroke-width="1.5"></path><path d="M1291.32 405.28L1306.18 546.71" stroke="hsl(228.5, 77.2%, 51.5%)" stroke-width="1.5"></path><path d="M1291.32 405.28L1128.97 342.76" stroke="hsl(228.5, 77.2%, 51.5%)" stroke-width="1.5"></path><path d="M1431.47 46.97L1431.47 46.97" stroke="hsl(228.5, 77.2%, 51.5%)" stroke-width="1.5"></path><path d="M1431.47 46.97L1425.87 -51.07" stroke="hsl(228.5, 77.2%, 51.5%)" stroke-width="1.5"></path><path d="M1600.79 -54.22L1600.79 -54.22" stroke="hsl(228.5, 77.2%, 51.5%)" stroke-width="1.5"></path><path d="M1600.79 -54.22L1581.21 90.5" stroke="hsl(228.5, 77.2%, 51.5%)" stroke-width="1.5"></path><path d="M1600.79 -54.22L1425.87 -51.07" stroke="hsl(228.5, 77.2%, 51.5%)" stroke-width="1.5"></path><path d="M1600.79 -54.22L1431.47 46.97" stroke="hsl(228.5, 77.2%, 51.5%)" stroke-width="1.5"></path><path d="M1600.79 -54.22L1595.64 252.91" stroke="hsl(228.5, 77.2%, 51.5%)" stroke-width="1.5"></path><path d="M1600.79 -54.22L1292.21 -76.33" stroke="hsl(228.5, 77.2%, 51.5%)" stroke-width="1.5"></path><path d="M-43.39 665.72L-43.39 665.72" stroke="hsl(228.5, 77.2%, 51.5%)" stroke-width="1.5"></path><path d="M-43.39 665.72L47.55 664.54" stroke="hsl(228.5, 77.2%, 51.5%)" stroke-width="1.5"></path><path d="M-43.39 665.72L55.97 535.28" stroke="hsl(228.5, 77.2%, 51.5%)" stroke-width="1.5"></path><path d="M-43.39 665.72L212.63 510.61" stroke="hsl(228.5, 77.2%, 51.5%)" stroke-width="1.5"></path><path d="M-43.39 665.72L337.72 641.43" stroke="hsl(228.5, 77.2%, 51.5%)" stroke-width="1.5"></path><path d="M55.97 535.28L55.97 535.28" stroke="hsl(228.5, 77.2%, 51.5%)" stroke-width="1.5"></path><path d="M55.97 535.28L47.55 664.54" stroke="hsl(228.5, 77.2%, 51.5%)" stroke-width="1.5"></path><path d="M55.97 535.28L212.63 510.61" stroke="hsl(228.5, 77.2%, 51.5%)" stroke-width="1.5"></path><path d="M47.55 664.54L47.55 664.54" stroke="hsl(228.5, 77.2%, 51.5%)" stroke-width="1.5"></path><path d="M212.63 510.61L212.63 510.61" stroke="hsl(228.5, 77.2%, 51.5%)" stroke-width="1.5"></path><path d="M212.63 510.61L337.72 641.43" stroke="hsl(228.5, 77.2%, 51.5%)" stroke-width="1.5"></path><path d="M212.63 510.61L47.55 664.54" stroke="hsl(228.5, 77.2%, 51.5%)" stroke-width="1.5"></path><path d="M337.72 641.43L337.72 641.43" stroke="hsl(228.5, 77.2%, 51.5%)" stroke-width="1.5"></path><path d="M337.72 641.43L555.2 677.49" stroke="hsl(228.5, 77.2%, 51.5%)" stroke-width="1.5"></path><path d="M337.72 641.43L47.55 664.54" stroke="hsl(228.5, 77.2%, 51.5%)" stroke-width="1.5"></path><path d="M337.72 641.43L55.97 535.28" stroke="hsl(228.5, 77.2%, 51.5%)" stroke-width="1.5"></path><path d="M555.2 677.49L555.2 677.49" stroke="hsl(228.5, 77.2%, 51.5%)" stroke-width="1.5"></path><path d="M555.2 677.49L653.38 507.14" stroke="hsl(228.5, 77.2%, 51.5%)" stroke-width="1.5"></path><path d="M709.29 383.16L709.29 383.16" stroke="hsl(228.5, 77.2%, 51.5%)" stroke-width="1.5"></path><path d="M709.29 383.16L796.01 379.18" stroke="hsl(228.5, 77.2%, 51.5%)" stroke-width="1.5"></path><path d="M709.29 383.16L653.38 507.14" stroke="hsl(228.5, 77.2%, 51.5%)" stroke-width="1.5"></path><path d="M653.38 507.14L653.38 507.14" stroke="hsl(228.5, 77.2%, 51.5%)" stroke-width="1.5"></path><path d="M796.01 379.18L796.01 379.18" stroke="hsl(228.5, 77.2%, 51.5%)" stroke-width="1.5"></path><path d="M796.01 379.18L810.3 497.53" stroke="hsl(228.5, 77.2%, 51.5%)" stroke-width="1.5"></path><path d="M796.01 379.18L653.38 507.14" stroke="hsl(228.5, 77.2%, 51.5%)" stroke-width="1.5"></path><path d="M796.01 379.18L986.92 503.95" stroke="hsl(228.5, 77.2%, 51.5%)" stroke-width="1.5"></path><path d="M810.3 497.53L810.3 497.53" stroke="hsl(228.5, 77.2%, 51.5%)" stroke-width="1.5"></path><path d="M810.3 497.53L843.91 643.05" stroke="hsl(228.5, 77.2%, 51.5%)" stroke-width="1.5"></path><path d="M810.3 497.53L709.29 383.16" stroke="hsl(228.5, 77.2%, 51.5%)" stroke-width="1.5"></path><path d="M843.91 643.05L843.91 643.05" stroke="hsl(228.5, 77.2%, 51.5%)" stroke-width="1.5"></path><path d="M843.91 643.05L959.67 642.24" stroke="hsl(228.5, 77.2%, 51.5%)" stroke-width="1.5"></path><path d="M843.91 643.05L986.92 503.95" stroke="hsl(228.5, 77.2%, 51.5%)" stroke-width="1.5"></path><path d="M843.91 643.05L653.38 507.14" stroke="hsl(228.5, 77.2%, 51.5%)" stroke-width="1.5"></path><path d="M843.91 643.05L796.01 379.18" stroke="hsl(228.5, 77.2%, 51.5%)" stroke-width="1.5"></path><path d="M986.92 503.95L986.92 503.95" stroke="hsl(228.5, 77.2%, 51.5%)" stroke-width="1.5"></path><path d="M986.92 503.95L1101.83 537.47" stroke="hsl(228.5, 77.2%, 51.5%)" stroke-width="1.5"></path><path d="M986.92 503.95L959.67 642.24" stroke="hsl(228.5, 77.2%, 51.5%)" stroke-width="1.5"></path><path d="M986.92 503.95L810.3 497.53" stroke="hsl(228.5, 77.2%, 51.5%)" stroke-width="1.5"></path><path d="M959.67 642.24L959.67 642.24" stroke="hsl(228.5, 77.2%, 51.5%)" stroke-width="1.5"></path><path d="M959.67 642.24L1117.62 708.62" stroke="hsl(228.5, 77.2%, 51.5%)" stroke-width="1.5"></path><path d="M1145.34 93.68L1145.34 93.68" stroke="hsl(228.5, 77.2%, 51.5%)" stroke-width="1.5"></path><path d="M1145.34 93.68L1150.37 213.12" stroke="hsl(228.5, 77.2%, 51.5%)" stroke-width="1.5"></path><path d="M1145.34 93.68L1286.48 101.45" stroke="hsl(228.5, 77.2%, 51.5%)" stroke-width="1.5"></path><path d="M1145.34 93.68L1292.21 -76.33" stroke="hsl(228.5, 77.2%, 51.5%)" stroke-width="1.5"></path><path d="M1145.34 93.68L1128.97 342.76" stroke="hsl(228.5, 77.2%, 51.5%)" stroke-width="1.5"></path><path d="M1145.34 93.68L1431.47 46.97" stroke="hsl(228.5, 77.2%, 51.5%)" stroke-width="1.5"></path><path d="M1150.37 213.12L1150.37 213.12" stroke="hsl(228.5, 77.2%, 51.5%)" stroke-width="1.5"></path><path d="M1150.37 213.12L1128.97 342.76" stroke="hsl(228.5, 77.2%, 51.5%)" stroke-width="1.5"></path><path d="M1150.37 213.12L1286.48 101.45" stroke="hsl(228.5, 77.2%, 51.5%)" stroke-width="1.5"></path><path d="M1150.37 213.12L1003.56 378.83" stroke="hsl(228.5, 77.2%, 51.5%)" stroke-width="1.5"></path><path d="M1150.37 213.12L1291.32 405.28" stroke="hsl(228.5, 77.2%, 51.5%)" stroke-width="1.5"></path><path d="M1128.97 342.76L1128.97 342.76" stroke="hsl(228.5, 77.2%, 51.5%)" stroke-width="1.5"></path><path d="M1128.97 342.76L1101.83 537.47" stroke="hsl(228.5, 77.2%, 51.5%)" stroke-width="1.5"></path><path d="M1128.97 342.76L1301.73 216.17" stroke="hsl(228.5, 77.2%, 51.5%)" stroke-width="1.5"></path><path d="M1101.83 537.47L1101.83 537.47" stroke="hsl(228.5, 77.2%, 51.5%)" stroke-width="1.5"></path><path d="M1101.83 537.47L1117.62 708.62" stroke="hsl(228.5, 77.2%, 51.5%)" stroke-width="1.5"></path><path d="M1101.83 537.47L959.67 642.24" stroke="hsl(228.5, 77.2%, 51.5%)" stroke-width="1.5"></path><path d="M1101.83 537.47L1306.18 546.71" stroke="hsl(228.5, 77.2%, 51.5%)" stroke-width="1.5"></path><path d="M1117.62 708.62L1117.62 708.62" stroke="hsl(228.5, 77.2%, 51.5%)" stroke-width="1.5"></path><path d="M1292.21 -76.33L1292.21 -76.33" stroke="hsl(228.5, 77.2%, 51.5%)" stroke-width="1.5"></path><path d="M1292.21 -76.33L1425.87 -51.07" stroke="hsl(228.5, 77.2%, 51.5%)" stroke-width="1.5"></path><path d="M1292.21 -76.33L1286.48 101.45" stroke="hsl(228.5, 77.2%, 51.5%)" stroke-width="1.5"></path><path d="M1292.21 -76.33L1431.47 46.97" stroke="hsl(228.5, 77.2%, 51.5%)" stroke-width="1.5"></path><path d="M1292.21 -76.33L1301.73 216.17" stroke="hsl(228.5, 77.2%, 51.5%)" stroke-width="1.5"></path><path d="M1286.48 101.45L1286.48 101.45" stroke="hsl(228.5, 77.2%, 51.5%)" stroke-width="1.5"></path><path d="M1286.48 101.45L1431.47 46.97" stroke="hsl(228.5, 77.2%, 51.5%)" stroke-width="1.5"></path><path d="M1306.18 546.71L1306.18 546.71" stroke="hsl(228.5, 77.2%, 51.5%)" stroke-width="1.5"></path><path d="M1306.18 546.71L1295.54 682.46" stroke="hsl(228.5, 77.2%, 51.5%)" stroke-width="1.5"></path><path d="M1306.18 546.71L1423.59 641.77" stroke="hsl(228.5, 77.2%, 51.5%)" stroke-width="1.5"></path><path d="M1306.18 546.71L1117.62 708.62" stroke="hsl(228.5, 77.2%, 51.5%)" stroke-width="1.5"></path><path d="M1306.18 546.71L1562.53 515.76" stroke="hsl(228.5, 77.2%, 51.5%)" stroke-width="1.5"></path><path d="M1295.54 682.46L1295.54 682.46" stroke="hsl(228.5, 77.2%, 51.5%)" stroke-width="1.5"></path><path d="M1295.54 682.46L1423.59 641.77" stroke="hsl(228.5, 77.2%, 51.5%)" stroke-width="1.5"></path><path d="M1295.54 682.46L1117.62 708.62" stroke="hsl(228.5, 77.2%, 51.5%)" stroke-width="1.5"></path><path d="M1295.54 682.46L1101.83 537.47" stroke="hsl(228.5, 77.2%, 51.5%)" stroke-width="1.5"></path><path d="M1425.87 -51.07L1425.87 -51.07" stroke="hsl(228.5, 77.2%, 51.5%)" stroke-width="1.5"></path><path d="M1425.87 -51.07L1286.48 101.45" stroke="hsl(228.5, 77.2%, 51.5%)" stroke-width="1.5"></path><path d="M1426.59 221.51L1426.59 221.51" stroke="hsl(228.5, 77.2%, 51.5%)" stroke-width="1.5"></path><path d="M1426.59 221.51L1595.64 252.91" stroke="hsl(228.5, 77.2%, 51.5%)" stroke-width="1.5"></path><path d="M1426.59 221.51L1431.47 46.97" stroke="hsl(228.5, 77.2%, 51.5%)" stroke-width="1.5"></path><path d="M1426.59 221.51L1286.48 101.45" stroke="hsl(228.5, 77.2%, 51.5%)" stroke-width="1.5"></path><path d="M1426.59 221.51L1581.21 90.5" stroke="hsl(228.5, 77.2%, 51.5%)" stroke-width="1.5"></path><path d="M1426.59 221.51L1291.32 405.28" stroke="hsl(228.5, 77.2%, 51.5%)" stroke-width="1.5"></path><path d="M1423.59 641.77L1423.59 641.77" stroke="hsl(228.5, 77.2%, 51.5%)" stroke-width="1.5"></path><path d="M1423.59 641.77L1568.47 645.5" stroke="hsl(228.5, 77.2%, 51.5%)" stroke-width="1.5"></path><path d="M1581.21 90.5L1581.21 90.5" stroke="hsl(228.5, 77.2%, 51.5%)" stroke-width="1.5"></path><path d="M1581.21 90.5L1431.47 46.97" stroke="hsl(228.5, 77.2%, 51.5%)" stroke-width="1.5"></path><path d="M1581.21 90.5L1595.64 252.91" stroke="hsl(228.5, 77.2%, 51.5%)" stroke-width="1.5"></path><path d="M1581.21 90.5L1425.87 -51.07" stroke="hsl(228.5, 77.2%, 51.5%)" stroke-width="1.5"></path><path d="M1581.21 90.5L1286.48 101.45" stroke="hsl(228.5, 77.2%, 51.5%)" stroke-width="1.5"></path><path d="M1595.64 252.91L1595.64 252.91" stroke="hsl(228.5, 77.2%, 51.5%)" stroke-width="1.5"></path><path d="M1595.64 252.91L1431.47 46.97" stroke="hsl(228.5, 77.2%, 51.5%)" stroke-width="1.5"></path><path d="M1595.64 252.91L1562.53 515.76" stroke="hsl(228.5, 77.2%, 51.5%)" stroke-width="1.5"></path><path d="M1562.53 515.76L1562.53 515.76" stroke="hsl(228.5, 77.2%, 51.5%)" stroke-width="1.5"></path><path d="M1562.53 515.76L1568.47 645.5" stroke="hsl(228.5, 77.2%, 51.5%)" stroke-width="1.5"></path><path d="M1562.53 515.76L1423.59 641.77" stroke="hsl(228.5, 77.2%, 51.5%)" stroke-width="1.5"></path><path d="M1568.47 645.5L1568.47 645.5" stroke="hsl(228.5, 77.2%, 51.5%)" stroke-width="1.5"></path><path d="M1568.47 645.5L1295.54 682.46" stroke="hsl(228.5, 77.2%, 51.5%)" stroke-width="1.5"></path><path d="M1568.47 645.5L1306.18 546.71" stroke="hsl(228.5, 77.2%, 51.5%)" stroke-width="1.5"></path><path d="M1568.47 645.5L1291.32 405.28" stroke="hsl(228.5, 77.2%, 51.5%)" stroke-width="1.5"></path><path d="M1568.47 645.5L1595.64 252.91" stroke="hsl(228.5, 77.2%, 51.5%)" stroke-width="1.5"></path><circle r="25" cx="-104.46" cy="548.03" fill="url(&quot;#SvgjsRadialGradient1001&quot;)"></circle><circle r="25" cx="207.08" cy="670.43" fill="url(&quot;#SvgjsRadialGradient1001&quot;)"></circle><circle r="25" cx="1003.56" cy="378.83" fill="url(&quot;#SvgjsRadialGradient1001&quot;)"></circle><circle r="25" cx="1301.73" cy="216.17" fill="url(&quot;#SvgjsRadialGradient1001&quot;)"></circle><circle r="25" cx="1291.32" cy="405.28" fill="url(&quot;#SvgjsRadialGradient1001&quot;)"></circle><circle r="25" cx="1431.47" cy="46.97" fill="url(&quot;#SvgjsRadialGradient1001&quot;)"></circle><circle r="25" cx="1600.79" cy="-54.22" fill="url(&quot;#SvgjsRadialGradient1001&quot;)"></circle><circle r="5" cx="-43.39" cy="665.72" fill="#8b9ad9"></circle><circle r="5" cx="55.97" cy="535.28" fill="#8b9ad9"></circle><circle r="5" cx="47.55" cy="664.54" fill="#8b9ad9"></circle><circle r="5" cx="212.63" cy="510.61" fill="#8b9ad9"></circle><circle r="5" cx="337.72" cy="641.43" fill="#8b9ad9"></circle><circle r="5" cx="555.2" cy="677.49" fill="#8b9ad9"></circle><circle r="5" cx="709.29" cy="383.16" fill="#8b9ad9"></circle><circle r="5" cx="653.38" cy="507.14" fill="#8b9ad9"></circle><circle r="5" cx="796.01" cy="379.18" fill="#8b9ad9"></circle><circle r="5" cx="810.3" cy="497.53" fill="#8b9ad9"></circle><circle r="5" cx="843.91" cy="643.05" fill="#8b9ad9"></circle><circle r="5" cx="986.92" cy="503.95" fill="#8b9ad9"></circle><circle r="5" cx="959.67" cy="642.24" fill="#8b9ad9"></circle><circle r="5" cx="1145.34" cy="93.68" fill="#8b9ad9"></circle><circle r="5" cx="1150.37" cy="213.12" fill="#8b9ad9"></circle><circle r="5" cx="1128.97" cy="342.76" fill="#8b9ad9"></circle><circle r="5" cx="1101.83" cy="537.47" fill="#8b9ad9"></circle><circle r="5" cx="1117.62" cy="708.62" fill="#8b9ad9"></circle><circle r="5" cx="1292.21" cy="-76.33" fill="#8b9ad9"></circle><circle r="5" cx="1286.48" cy="101.45" fill="#8b9ad9"></circle><circle r="5" cx="1306.18" cy="546.71" fill="#8b9ad9"></circle><circle r="5" cx="1295.54" cy="682.46" fill="#8b9ad9"></circle><circle r="5" cx="1425.87" cy="-51.07" fill="#8b9ad9"></circle><circle r="5" cx="1426.59" cy="221.51" fill="#8b9ad9"></circle><circle r="5" cx="1423.59" cy="641.77" fill="#8b9ad9"></circle><circle r="5" cx="1581.21" cy="90.5" fill="#8b9ad9"></circle><circle r="5" cx="1595.64" cy="252.91" fill="#8b9ad9"></circle><circle r="5" cx="1562.53" cy="515.76" fill="#8b9ad9"></circle><circle r="5" cx="1568.47" cy="645.5" fill="#8b9ad9"></circle></g><defs><mask id="SvgjsMask1000"><rect width="1440" height="560" fill="#ffffff"></rect></mask><radialGradient id="SvgjsRadialGradient1001"><stop stop-color="#ffffff" offset="0.1"></stop><stop stop-color="#1735b3" offset="0.2"></stop><stop stop-color="rgba(23, 53, 179, 0)" offset="1"></stop></radialGradient></defs></svg>