<svg width="40" height="40" viewBox="0 0 40 40" fill="none" xmlns="http://www.w3.org/2000/svg">
<g clip-path="url(#clip0_27_34)">
<path d="M3.20834 -6H36.7917C38.0012 -6.00117 39.1992 -5.75768 40.3169 -5.28346C41.4346 -4.80925 42.4502 -4.11362 43.3055 -3.23639C44.1608 -2.35916 44.839 -1.31755 45.3014 -0.171167C45.7637 0.975213 46.0011 2.20386 46 3.44445V36.5556C46.0011 37.7961 45.7637 39.0248 45.3014 40.1712C44.839 41.3175 44.1608 42.3592 43.3055 43.2364C42.4502 44.1136 41.4346 44.8092 40.3169 45.2835C39.1992 45.7577 38.0012 46.0012 36.7917 46H3.20834C1.99876 46.0012 0.800833 45.7577 -0.316888 45.2835C-1.43461 44.8092 -2.45018 44.1136 -3.30548 43.2364C-4.16078 42.3592 -4.83902 41.3175 -5.30138 40.1712C-5.76373 39.0248 -6.00114 37.7961 -6 36.5556V3.44445C-6.00114 2.20386 -5.76373 0.975213 -5.30138 -0.171167C-4.83902 -1.31755 -4.16078 -2.35916 -3.30548 -3.23639C-2.45018 -4.11362 -1.43461 -4.80925 -0.316888 -5.28346C0.800833 -5.75768 1.99876 -6.00117 3.20834 -6Z" fill="#F16529"/>
<path d="M13.7999 11.992H20.0131V7.60001H9L9.10507 8.77829L10.1846 20.8816H20.0131V16.4895H14.2013L13.7999 11.992ZM14.7898 23.0776H10.3809L10.9961 29.9738L19.9929 32.4712L20.0131 32.4657V27.8961L19.9939 27.9012L15.1025 26.5805L14.7898 23.0776Z" fill="#EBEBEB"/>
<path d="M19.998 20.8816H25.4063L24.8964 26.5777L19.9979 27.8998V32.4691L29.0018 29.9738L29.0678 29.2317L30.1001 17.6689L30.2072 16.4895H19.998V20.8816ZM19.998 11.9813V11.992H30.6068L30.6948 11.0049L30.8951 8.77829L31 7.60001H19.998V11.9814V11.9813Z" fill="white"/>
</g>
<defs>
<clipPath id="clip0_27_34">
<rect width="40" height="40" fill="white"/>
</clipPath>
</defs>
</svg>
