<svg width="200" height="200" viewBox="0 0 200 200" fill="none" xmlns="http://www.w3.org/2000/svg">
<g clip-path="url(#clip0_102_205)">
<mask id="mask0_102_205" style="mask-type:luminance" maskUnits="userSpaceOnUse" x="0" y="0" width="200" height="200">
<path d="M200 0H0V200H200V0Z" fill="white"/>
</mask>
<g mask="url(#mask0_102_205)">
<path d="M35.4167 1.61203e-05H164.583C169.235 -0.00448106 173.843 0.93202 178.142 2.75591C182.441 4.57981 186.347 7.2553 189.636 10.6292C192.926 14.0032 195.535 18.0094 197.313 22.4186C199.092 26.8277 200.004 31.5533 200 36.3248V163.675C200.004 168.447 199.092 173.172 197.313 177.582C195.535 181.991 192.926 185.997 189.636 189.37C186.347 192.744 182.441 195.42 178.142 197.244C173.843 199.068 169.235 200.004 164.583 200H35.4167C30.7645 200.004 26.1571 199.068 21.8581 197.244C17.5592 195.42 13.6532 192.744 10.3636 189.37C7.0739 185.997 4.46532 181.991 2.68702 177.582C0.908715 173.172 -0.00436903 168.447 1.57173e-05 163.675V36.3248C-0.00436903 31.5533 0.908715 26.8277 2.68702 22.4186C4.46532 18.0094 7.0739 14.0032 10.3636 10.6292C13.6532 7.2553 17.5592 4.57981 21.8581 2.75591C26.1571 0.93202 30.7645 -0.00448106 35.4167 1.61203e-05Z" fill="#F7DF1E"/>
<path d="M134.689 156.492C138.717 163.07 143.959 167.904 153.229 167.904C161.016 167.904 165.991 164.012 165.991 158.635C165.991 152.19 160.879 149.908 152.308 146.159L147.609 144.143C134.047 138.365 125.038 131.127 125.038 115.825C125.038 101.73 135.778 91 152.562 91C164.511 91 173.101 95.1585 179.292 106.047L164.657 115.444C161.435 109.666 157.958 107.39 152.562 107.39C147.057 107.39 143.568 110.882 143.568 115.444C143.568 121.082 147.06 123.365 155.124 126.857L159.822 128.87C175.79 135.717 184.806 142.698 184.806 158.393C184.806 175.314 171.514 184.584 153.663 184.584C136.21 184.584 124.933 176.267 119.416 165.365L134.689 156.492ZM68.2985 158.12C71.251 163.358 73.9365 167.787 80.3935 167.787C86.568 167.787 90.4635 165.371 90.4635 155.978V92.073H109.257V156.231C109.257 175.692 97.8475 184.549 81.1935 184.549C66.146 184.549 57.4315 176.762 53 167.383L68.2985 158.12Z" fill="black"/>
</g>
</g>
<defs>
<clipPath id="clip0_102_205">
<rect width="200" height="200" fill="white"/>
</clipPath>
</defs>
</svg>
