<svg width="40" height="40" viewBox="0 0 40 40" fill="none" xmlns="http://www.w3.org/2000/svg">
<g clip-path="url(#clip0_27_40)">
<path d="M7.08334 -6H32.9167C33.8471 -6.00117 34.7686 -5.75768 35.6284 -5.28346C36.4882 -4.80925 37.2694 -4.11362 37.9273 -3.23639C38.5852 -2.35916 39.1069 -1.31755 39.4626 -0.171168C39.8183 0.975213 40.0009 2.20386 40 3.44445V36.5555C40.0009 37.7961 39.8183 39.0248 39.4626 40.1712C39.1069 41.3175 38.5852 42.3592 37.9273 43.2364C37.2694 44.1136 36.4882 44.8092 35.6284 45.2835C34.7686 45.7577 33.8471 46.0012 32.9167 46H7.08334C6.15289 46.0012 5.23141 45.7577 4.37162 45.2835C3.51184 44.8092 2.73063 44.1136 2.07271 43.2364C1.41478 42.3592 0.893064 41.3175 0.537404 40.1712C0.181743 39.0248 -0.000873806 37.7961 3.14346e-06 36.5555V3.44445C-0.000873806 2.20386 0.181743 0.975213 0.537404 -0.171168C0.893064 -1.31755 1.41478 -2.35916 2.07271 -3.23639C2.73063 -4.11362 3.51184 -4.80925 4.37162 -5.28346C5.23141 -5.75768 6.15289 -6.00117 7.08334 -6Z" fill="#2965F1"/>
<path d="M9.79102 16.4895L10.1846 20.8816H20.0131V16.4895H9.79102ZM9 7.6L9.39923 11.992H20.0131V7.6H9ZM20.0131 27.8961L19.9939 27.9012L15.1025 26.5804L14.7898 23.0776H10.3809L10.9961 29.9738L19.9929 32.4712L20.0131 32.4657V27.8961Z" fill="#EBEBEB"/>
<path d="M30.2072 16.4895L31 7.6H19.998V11.992H26.1867L25.7871 16.4895H19.998V20.8816H25.4063L24.8964 26.5777L19.9979 27.8998V32.4691L29.0018 29.9738L29.0678 29.2317L30.1001 17.6689L30.2072 16.4895Z" fill="white"/>
</g>
<defs>
<clipPath id="clip0_27_40">
<rect width="40" height="40" fill="white"/>
</clipPath>
</defs>
</svg>
