<svg width="200" height="200" viewBox="0 0 200 200" fill="none" xmlns="http://www.w3.org/2000/svg">
    <rect x="33" y="24" width="140" height="151" fill="white" />
    <path
        d="M37.053 199.991H169.619C186.808 195.736 197.269 185.841 200 169.465V30.3567C196.274 15.7064 188.03 4.25422 169.619 0L30.7617 0.194593C13.3215 3.70003 3.89597 14.5089 0 30.3567V169.465C3.96623 190.503 21.9072 200.35 37.053 199.991ZM119.588 165.308H50.5821V36.1681C50.5821 36.1681 120.896 36.4688 124.038 36.9995C142.768 39.544 151.051 49.9776 152.413 61.5437C154.681 80.8046 146.392 90.1441 135.688 95.1833C173.117 108.179 164.515 162.615 119.588 165.308ZM79.2989 88.6378L95.4278 88.5051C110.556 88.3371 111.689 88.3017 114.124 87.6383C121.737 85.5685 125.039 81.199 125.039 73.1941C125.039 67.0555 122.87 63.084 118.16 60.7489C113.991 58.6791 109.476 58.2457 91.7541 58.2103H79.2989L79.2989 88.6378ZM79.2989 107.894L79.2989 143.319L96.9238 143.186C116.726 143.054 117.39 142.983 122.268 140.621C127.88 137.888 130.377 133.412 130.377 126.106C130.377 116.704 126.641 111.494 118.028 108.893C114.015 107.547 95.6273 108.132 79.2989 107.894Z"
        fill="url(#paint0_linear_100_196)" />
    <defs>
        <linearGradient id="paint0_linear_100_196" x1="100" y1="0" x2="100" y2="200"
            gradientUnits="userSpaceOnUse">
            <stop stop-color="#9013FE" />
            <stop offset="1" stop-color="#6610F2" />
        </linearGradient>
    </defs>
</svg>